<mxfile host="Electron" agent="Mozilla/5.0 (Windows NT 10.0; Win64; x64) AppleWebKit/537.36 (KHTML, like Gecko) draw.io/25.0.1 Chrome/128.0.6613.186 Electron/32.2.6 Safari/537.36" version="25.0.1">
  <diagram name="Page-1" id="8A0jtAF-dGXutbVNeH_L">
    <mxGraphModel dx="-346" dy="309" grid="1" gridSize="10" guides="1" tooltips="1" connect="1" arrows="1" fold="1" page="1" pageScale="1" pageWidth="850" pageHeight="1100" math="0" shadow="0">
      <root>
        <mxCell id="0" />
        <mxCell id="1" parent="0" />
        <mxCell id="qj1ER4ESAMracLOnjRn6-40" value="" style="rounded=1;whiteSpace=wrap;html=1;arcSize=2;" parent="1" vertex="1">
          <mxGeometry x="1627" y="50" width="703" height="391.75" as="geometry" />
        </mxCell>
        <UserObject label="https://upload.wikimedia.org/wikipedia/commons/d/da/Logo_of_Modbus.svg" link="https://upload.wikimedia.org/wikipedia/commons/d/da/Logo_of_Modbus.svg" id="qj1ER4ESAMracLOnjRn6-1">
          <mxCell style="rounded=1;whiteSpace=wrap;html=1;arcSize=2;" parent="1" vertex="1">
            <mxGeometry x="910" y="50" width="697" height="390" as="geometry" />
          </mxCell>
        </UserObject>
        <mxCell id="qj1ER4ESAMracLOnjRn6-2" value="" style="rounded=1;whiteSpace=wrap;html=1;fillColor=#999999;" parent="1" vertex="1">
          <mxGeometry x="1256.25" y="335" width="28" height="10" as="geometry" />
        </mxCell>
        <mxCell id="qj1ER4ESAMracLOnjRn6-3" value="" style="shape=cube;whiteSpace=wrap;html=1;boundedLbl=1;backgroundOutline=1;darkOpacity=0.05;darkOpacity2=0.1;" parent="1" vertex="1">
          <mxGeometry x="1030" y="187" width="400" height="89" as="geometry" />
        </mxCell>
        <mxCell id="qj1ER4ESAMracLOnjRn6-4" value="&lt;font style=&quot;font-size: 22px;&quot;&gt;M&lt;/font&gt;" style="ellipse;whiteSpace=wrap;html=1;aspect=fixed;fillColor=#CCCCFF;" parent="1" vertex="1">
          <mxGeometry x="1095" y="220" width="45" height="45" as="geometry" />
        </mxCell>
        <mxCell id="qj1ER4ESAMracLOnjRn6-5" value="Temp. Indicating Controller (TIC)&amp;nbsp;" style="rounded=1;whiteSpace=wrap;html=1;fillColor=#660066;fontStyle=1;fontColor=#FFFFFF;" parent="1" vertex="1">
          <mxGeometry x="1283.75" y="404.5" width="208.5" height="20" as="geometry" />
        </mxCell>
        <mxCell id="qj1ER4ESAMracLOnjRn6-6" value="PID Controller" style="rounded=1;whiteSpace=wrap;html=1;fillColor=#660066;fontStyle=1;fontColor=#FFFFFF;" parent="1" vertex="1">
          <mxGeometry x="1315.75" y="380" width="143.5" height="20" as="geometry" />
        </mxCell>
        <mxCell id="qj1ER4ESAMracLOnjRn6-7" value="&lt;b&gt;SA&lt;/b&gt;" style="ellipse;whiteSpace=wrap;html=1;aspect=fixed;fillColor=#FFCCFF;" parent="1" vertex="1">
          <mxGeometry x="1302" y="145" width="34" height="34" as="geometry" />
        </mxCell>
        <mxCell id="qj1ER4ESAMracLOnjRn6-8" value="" style="endArrow=none;dashed=1;html=1;strokeWidth=3;rounded=1;exitX=0.5;exitY=0;exitDx=0;exitDy=0;entryX=1;entryY=0.5;entryDx=0;entryDy=0;curved=0;strokeColor=#CC00CC;" parent="1" source="qj1ER4ESAMracLOnjRn6-9" target="qj1ER4ESAMracLOnjRn6-7" edge="1">
          <mxGeometry width="50" height="50" relative="1" as="geometry">
            <mxPoint x="1260" y="194" as="sourcePoint" />
            <mxPoint x="1310" y="144" as="targetPoint" />
            <Array as="points">
              <mxPoint x="1387" y="162" />
              <mxPoint x="1350" y="162" />
            </Array>
          </mxGeometry>
        </mxCell>
        <mxCell id="qj1ER4ESAMracLOnjRn6-9" value="&lt;table cellpadding=&quot;4&quot; cellspacing=&quot;0&quot; border=&quot;0&quot; style=&quot;font-size:1em;width:100%;height:100%;&quot;&gt;&lt;tbody&gt;&lt;tr&gt;&lt;td&gt;TIC&lt;/td&gt;&lt;/tr&gt;&lt;tr&gt;&lt;td&gt;001&lt;/td&gt;&lt;/tr&gt;&lt;/tbody&gt;&lt;/table&gt; " style="html=1;outlineConnect=0;align=center;dashed=0;aspect=fixed;shape=mxgraph.pid2inst.progLogCont;mounting=room;fillColor=#E5CCFF;" parent="1" vertex="1">
          <mxGeometry x="1361" y="318" width="54" height="54" as="geometry" />
        </mxCell>
        <mxCell id="qj1ER4ESAMracLOnjRn6-10" value="" style="endArrow=none;dashed=1;html=1;rounded=0;exitX=1;exitY=0.5;exitDx=0;exitDy=0;entryX=0;entryY=0.5;entryDx=0;entryDy=0;strokeWidth=3;strokeColor=#CC00CC;" parent="1" source="qj1ER4ESAMracLOnjRn6-22" target="qj1ER4ESAMracLOnjRn6-9" edge="1">
          <mxGeometry width="50" height="50" relative="1" as="geometry">
            <mxPoint x="1190" y="204" as="sourcePoint" />
            <mxPoint x="1240" y="154" as="targetPoint" />
          </mxGeometry>
        </mxCell>
        <mxCell id="qj1ER4ESAMracLOnjRn6-11" value="&lt;font style=&quot;font-size: 20px;&quot;&gt;Fan Cooling Unit&lt;/font&gt;" style="rounded=1;whiteSpace=wrap;html=1;fillColor=none;fontStyle=5;fontColor=#000000;strokeColor=none;fontSize=15;" parent="1" vertex="1">
          <mxGeometry x="919" y="64" width="201" height="20" as="geometry" />
        </mxCell>
        <mxCell id="qj1ER4ESAMracLOnjRn6-12" value="Supply Air Temperature" style="rounded=1;whiteSpace=wrap;html=1;fillColor=#660066;fontStyle=1;fontColor=#FFFFFF;" parent="1" vertex="1">
          <mxGeometry x="1188.25" y="146.75" width="100" height="30.5" as="geometry" />
        </mxCell>
        <mxCell id="qj1ER4ESAMracLOnjRn6-13" value="" style="endArrow=none;html=1;rounded=0;entryX=0.5;entryY=1;entryDx=0;entryDy=0;strokeWidth=3;strokeColor=#FF8000;" parent="1" target="qj1ER4ESAMracLOnjRn6-7" edge="1">
          <mxGeometry width="50" height="50" relative="1" as="geometry">
            <mxPoint x="1319" y="241" as="sourcePoint" />
            <mxPoint x="1400" y="150" as="targetPoint" />
          </mxGeometry>
        </mxCell>
        <mxCell id="qj1ER4ESAMracLOnjRn6-14" value="" style="shape=cylinder3;whiteSpace=wrap;html=1;boundedLbl=1;backgroundOutline=1;size=2.6666361490885038;fillColor=#0000FF;" parent="1" vertex="1">
          <mxGeometry x="1246.25" y="265" width="10" height="115" as="geometry" />
        </mxCell>
        <mxCell id="qj1ER4ESAMracLOnjRn6-15" value="" style="shape=cylinder3;whiteSpace=wrap;html=1;boundedLbl=1;backgroundOutline=1;size=2.6666361490885038;fillColor=#00FFFF;" parent="1" vertex="1">
          <mxGeometry x="1224" y="250" width="10" height="120" as="geometry" />
        </mxCell>
        <mxCell id="qj1ER4ESAMracLOnjRn6-16" value="" style="shape=cube;whiteSpace=wrap;html=1;boundedLbl=1;backgroundOutline=1;darkOpacity=0.05;darkOpacity2=0.1;fillColor=#0000FF;" parent="1" vertex="1">
          <mxGeometry x="1221.25" y="187" width="40" height="89" as="geometry" />
        </mxCell>
        <mxCell id="qj1ER4ESAMracLOnjRn6-17" value="" style="shape=flexArrow;endArrow=classic;html=1;rounded=0;fillColor=#99FF99;" parent="1" edge="1">
          <mxGeometry width="50" height="50" relative="1" as="geometry">
            <mxPoint x="1441.25" y="234" as="sourcePoint" />
            <mxPoint x="1488.75" y="234" as="targetPoint" />
          </mxGeometry>
        </mxCell>
        <mxCell id="qj1ER4ESAMracLOnjRn6-18" value="" style="shape=flexArrow;endArrow=classic;html=1;rounded=0;fillColor=#006600;" parent="1" edge="1">
          <mxGeometry width="50" height="50" relative="1" as="geometry">
            <mxPoint x="965.25" y="234.15999999999997" as="sourcePoint" />
            <mxPoint x="1012.75" y="234.15999999999997" as="targetPoint" />
          </mxGeometry>
        </mxCell>
        <mxCell id="qj1ER4ESAMracLOnjRn6-19" value="" style="rounded=1;whiteSpace=wrap;html=1;fillColor=#999999;" parent="1" vertex="1">
          <mxGeometry x="1243" y="320" width="16" height="40" as="geometry" />
        </mxCell>
        <mxCell id="qj1ER4ESAMracLOnjRn6-20" value="" style="rounded=1;whiteSpace=wrap;html=1;fillColor=#999999;" parent="1" vertex="1">
          <mxGeometry x="1237" y="320" width="28" height="10" as="geometry" />
        </mxCell>
        <mxCell id="qj1ER4ESAMracLOnjRn6-21" value="" style="rounded=1;whiteSpace=wrap;html=1;fillColor=#999999;" parent="1" vertex="1">
          <mxGeometry x="1237" y="350" width="28" height="10" as="geometry" />
        </mxCell>
        <mxCell id="qj1ER4ESAMracLOnjRn6-22" value="" style="rounded=1;whiteSpace=wrap;html=1;fillColor=#FF8000;" parent="1" vertex="1">
          <mxGeometry x="1276" y="330" width="14" height="30" as="geometry" />
        </mxCell>
        <mxCell id="qj1ER4ESAMracLOnjRn6-23" value="Chilled Water Supply" style="rounded=1;whiteSpace=wrap;html=1;fillColor=#33FFFF;fontStyle=1;fontColor=#000000;strokeColor=#000000;" parent="1" vertex="1">
          <mxGeometry x="1068" y="315" width="143.5" height="20" as="geometry" />
        </mxCell>
        <mxCell id="qj1ER4ESAMracLOnjRn6-24" value="Space Temperature&lt;div&gt;(Thermostat)&lt;/div&gt;" style="rounded=1;whiteSpace=wrap;html=1;fillColor=#CCFFCC;fontStyle=1;fontColor=#000000;" parent="1" vertex="1">
          <mxGeometry x="1450.75" y="268" width="143.5" height="37" as="geometry" />
        </mxCell>
        <mxCell id="qj1ER4ESAMracLOnjRn6-25" value="Chilled Water Return" style="rounded=1;whiteSpace=wrap;html=1;fillColor=#0000FF;fontStyle=1;fontColor=#FFFFFF;strokeColor=#000000;" parent="1" vertex="1">
          <mxGeometry x="1068" y="350" width="143.5" height="20" as="geometry" />
        </mxCell>
        <mxCell id="qj1ER4ESAMracLOnjRn6-26" value="&lt;font style=&quot;font-size: 13px;&quot;&gt;Cooling Coil&lt;/font&gt;" style="rounded=1;whiteSpace=wrap;html=1;fillColor=none;fontStyle=5;fontColor=#000000;strokeColor=none;" parent="1" vertex="1">
          <mxGeometry x="1162" y="221.5" width="59" height="20" as="geometry" />
        </mxCell>
        <mxCell id="qj1ER4ESAMracLOnjRn6-27" value="&lt;font style=&quot;font-size: 13px;&quot;&gt;RTD&lt;/font&gt;" style="rounded=1;whiteSpace=wrap;html=1;fillColor=none;fontStyle=5;fontColor=#000000;strokeColor=none;" parent="1" vertex="1">
          <mxGeometry x="1312" y="219.5" width="59" height="20" as="geometry" />
        </mxCell>
        <mxCell id="qj1ER4ESAMracLOnjRn6-28" value="Return Air (RA)" style="rounded=1;whiteSpace=wrap;html=1;fillColor=#006600;fontStyle=1;fontColor=#FFFFFF;" parent="1" vertex="1">
          <mxGeometry x="931.25" y="265" width="98.75" height="20" as="geometry" />
        </mxCell>
        <mxCell id="qj1ER4ESAMracLOnjRn6-29" value="&lt;table cellpadding=&quot;4&quot; cellspacing=&quot;0&quot; border=&quot;0&quot; style=&quot;font-size:1em;width:100%;height:100%;&quot;&gt;&lt;tbody&gt;&lt;tr&gt;&lt;td&gt;TIC&lt;/td&gt;&lt;/tr&gt;&lt;tr&gt;&lt;td&gt;002&lt;/td&gt;&lt;/tr&gt;&lt;/tbody&gt;&lt;/table&gt; " style="html=1;outlineConnect=0;align=center;dashed=0;aspect=fixed;shape=mxgraph.pid2inst.progLogCont;mounting=room;fillColor=#E5CCFF;" parent="1" vertex="1">
          <mxGeometry x="1495.25" y="84" width="54" height="54" as="geometry" />
        </mxCell>
        <mxCell id="qj1ER4ESAMracLOnjRn6-30" value="" style="shape=image;verticalLabelPosition=bottom;labelBackgroundColor=default;verticalAlign=top;aspect=fixed;imageAspect=0;image=https://cdn-icons-png.flaticon.com/512/1942/1942020.png;" parent="1" vertex="1">
          <mxGeometry x="1493.25" y="205.25" width="58.5" height="58.5" as="geometry" />
        </mxCell>
        <mxCell id="qj1ER4ESAMracLOnjRn6-31" value="" style="endArrow=none;dashed=1;html=1;rounded=0;exitX=0.5;exitY=1;exitDx=0;exitDy=0;entryX=0.5;entryY=0;entryDx=0;entryDy=0;strokeWidth=3;strokeColor=#CC00CC;" parent="1" source="qj1ER4ESAMracLOnjRn6-29" target="qj1ER4ESAMracLOnjRn6-30" edge="1">
          <mxGeometry width="50" height="50" relative="1" as="geometry">
            <mxPoint x="1300" y="355" as="sourcePoint" />
            <mxPoint x="1371" y="355" as="targetPoint" />
          </mxGeometry>
        </mxCell>
        <mxCell id="qj1ER4ESAMracLOnjRn6-32" value="" style="endArrow=none;dashed=1;html=1;rounded=1;exitX=0;exitY=0.5;exitDx=0;exitDy=0;entryX=0.5;entryY=0;entryDx=0;entryDy=0;strokeWidth=3;strokeColor=#CC00CC;curved=0;" parent="1" source="qj1ER4ESAMracLOnjRn6-29" target="qj1ER4ESAMracLOnjRn6-4" edge="1">
          <mxGeometry width="50" height="50" relative="1" as="geometry">
            <mxPoint x="1532" y="155" as="sourcePoint" />
            <mxPoint x="1533" y="215" as="targetPoint" />
            <Array as="points">
              <mxPoint x="1118" y="111" />
            </Array>
          </mxGeometry>
        </mxCell>
        <mxCell id="qj1ER4ESAMracLOnjRn6-38" value="" style="verticalLabelPosition=bottom;sketch=0;html=1;fillColor=#282828;strokeColor=none;verticalAlign=top;pointerEvents=1;align=center;shape=mxgraph.cisco_safe.people_places_things_icons.icon9;" parent="1" vertex="1">
          <mxGeometry x="2175" y="107.42" width="70" height="61.65" as="geometry" />
        </mxCell>
        <mxCell id="qj1ER4ESAMracLOnjRn6-41" value="&lt;font style=&quot;font-size: 20px;&quot;&gt;Raspberry Pi&lt;/font&gt;" style="rounded=1;whiteSpace=wrap;html=1;fillColor=none;fontStyle=5;fontColor=#000000;strokeColor=none;fontSize=15;" parent="1" vertex="1">
          <mxGeometry x="1620" y="64" width="160" height="20" as="geometry" />
        </mxCell>
        <mxCell id="qj1ER4ESAMracLOnjRn6-42" value="Dynamic Supply Air Setpoint" style="rounded=1;whiteSpace=wrap;html=1;fillColor=#000033;fontStyle=1;fontColor=#FFFFFF;" parent="1" vertex="1">
          <mxGeometry x="1640" y="331.25" width="260" height="25.5" as="geometry" />
        </mxCell>
        <mxCell id="qj1ER4ESAMracLOnjRn6-43" value="The more people occupying the room, the greater the cooling load, hence the supply Air Temperature is decreased to provide further cooling. (Min: 15&lt;font face=&quot;Helvetica&quot;&gt;&lt;span style=&quot;text-align: left;&quot;&gt;.0&amp;nbsp;&lt;/span&gt;&lt;/font&gt;&lt;span style=&quot;text-align: left;&quot;&gt;°C to Max: 20&lt;/span&gt;&lt;font face=&quot;Helvetica&quot;&gt;&lt;span style=&quot;text-align: left;&quot;&gt;.0&amp;nbsp;&lt;/span&gt;&lt;/font&gt;&lt;span style=&quot;text-align: left;&quot;&gt;°C)&lt;/span&gt;" style="rounded=1;whiteSpace=wrap;html=1;fillColor=#CCFFFF;fontStyle=1;fontColor=#000000;arcSize=10;" parent="1" vertex="1">
          <mxGeometry x="1640" y="361" width="260" height="71.5" as="geometry" />
        </mxCell>
        <mxCell id="qj1ER4ESAMracLOnjRn6-44" value="More People in a Room will contribute to Greater Heat Load&lt;div&gt;(Approx.&amp;nbsp;400 BTU/hr)&lt;/div&gt;" style="rounded=1;whiteSpace=wrap;html=1;fillColor=none;fontStyle=1;fontColor=#000000;arcSize=12;strokeColor=none;" parent="1" vertex="1">
          <mxGeometry x="2115" y="183" width="190" height="74" as="geometry" />
        </mxCell>
        <mxCell id="qj1ER4ESAMracLOnjRn6-45" value="Energy Saving based on Room Utilization" style="rounded=1;whiteSpace=wrap;html=1;fillColor=#000033;fontStyle=1;fontColor=#FFFFFF;" parent="1" vertex="1">
          <mxGeometry x="1640" y="97.95" width="260" height="25.5" as="geometry" />
        </mxCell>
        <mxCell id="qj1ER4ESAMracLOnjRn6-46" value="&lt;font face=&quot;Helvetica&quot;&gt;If there is No Occupant in the, Room Temperature is set to 25.0&amp;nbsp;&lt;span style=&quot;text-align: left;&quot;&gt;°C and when the room is occupied, it is set to 23.5&amp;nbsp;&lt;/span&gt;&lt;/font&gt;&lt;span style=&quot;text-align: left;&quot;&gt;°C&amp;nbsp;(adjustable)&lt;/span&gt;" style="rounded=1;whiteSpace=wrap;html=1;fillColor=#CCFFFF;fontStyle=1;fontColor=#000000;arcSize=8;" parent="1" vertex="1">
          <mxGeometry x="1640" y="126.69999999999999" width="260" height="74.3" as="geometry" />
        </mxCell>
        <mxCell id="qj1ER4ESAMracLOnjRn6-48" value="" style="endArrow=none;html=1;rounded=1;exitX=1;exitY=0.5;exitDx=0;exitDy=0;strokeWidth=3;strokeColor=#FF0080;startArrow=classic;startFill=1;fillColor=#dae8fc;entryX=0;entryY=0.5;entryDx=0;entryDy=0;curved=0;" parent="1" target="qj1ER4ESAMracLOnjRn6-45" edge="1">
          <mxGeometry width="50" height="50" relative="1" as="geometry">
            <mxPoint x="1549.25" y="110.58000000000001" as="sourcePoint" />
            <mxPoint x="1874.25" y="110.58000000000001" as="targetPoint" />
            <Array as="points" />
          </mxGeometry>
        </mxCell>
        <mxCell id="qj1ER4ESAMracLOnjRn6-49" value="Higher Space Temperature means lower Fan Speed resulting in Lower Power Consumption (Lower Fan Speed)" style="rounded=1;whiteSpace=wrap;html=1;fillColor=#CCFFCC;fontStyle=1;fontColor=#000000;arcSize=12;" parent="1" vertex="1">
          <mxGeometry x="1926" y="337" width="394" height="38" as="geometry" />
        </mxCell>
        <mxCell id="qj1ER4ESAMracLOnjRn6-50" value="Lower Supply Air Temperature means more Cooling Load, resulting in Greater Chilled Water Consumption. Increasing the Temperature When no body is present reduces chilled water consumption." style="rounded=1;whiteSpace=wrap;html=1;fillColor=#CCFFCC;fontStyle=1;fontColor=#000000;arcSize=12;" parent="1" vertex="1">
          <mxGeometry x="1925" y="379" width="395" height="53" as="geometry" />
        </mxCell>
        <mxCell id="qj1ER4ESAMracLOnjRn6-51" value="" style="shape=flexArrow;endArrow=classic;html=1;rounded=0;fillColor=#99FF99;" parent="1" edge="1">
          <mxGeometry width="50" height="50" relative="1" as="geometry">
            <mxPoint x="2050" y="139.61" as="sourcePoint" />
            <mxPoint x="2145" y="139" as="targetPoint" />
          </mxGeometry>
        </mxCell>
        <mxCell id="qj1ER4ESAMracLOnjRn6-52" value="" style="rounded=1;whiteSpace=wrap;html=1;fillColor=none;fontStyle=1;fontColor=#000000;arcSize=8;" parent="1" vertex="1">
          <mxGeometry x="2150" y="92.46000000000001" width="120" height="95.05" as="geometry" />
        </mxCell>
        <mxCell id="qj1ER4ESAMracLOnjRn6-54" value="" style="endArrow=classic;dashed=1;html=1;rounded=0;exitX=0.5;exitY=1;exitDx=0;exitDy=0;entryX=0.988;entryY=0.468;entryDx=0;entryDy=0;strokeWidth=3;strokeColor=#CC00CC;exitPerimeter=0;entryPerimeter=0;startArrow=none;startFill=0;endFill=1;jumpSize=5;" parent="1" source="qj1ER4ESAMracLOnjRn6-39" target="qj1ER4ESAMracLOnjRn6-33" edge="1">
          <mxGeometry width="50" height="50" relative="1" as="geometry">
            <mxPoint x="2007.5699999999997" y="190.5" as="sourcePoint" />
            <mxPoint x="2008.5699999999997" y="257.5" as="targetPoint" />
          </mxGeometry>
        </mxCell>
        <mxCell id="qj1ER4ESAMracLOnjRn6-33" value="" style="shape=image;verticalLabelPosition=bottom;labelBackgroundColor=default;verticalAlign=top;aspect=fixed;imageAspect=0;image=https://www.goodfreephotos.com/albums/vector-images/raspberry-pi-3-vector-file.png;rotation=-90;" parent="1" vertex="1">
          <mxGeometry x="1968" y="194.51999999999998" width="80.52" height="120.48" as="geometry" />
        </mxCell>
        <mxCell id="qj1ER4ESAMracLOnjRn6-39" value="" style="shape=mxgraph.signs.tech.camera_2;html=1;pointerEvents=1;fillColor=#000000;strokeColor=none;verticalLabelPosition=bottom;verticalAlign=top;align=center;" parent="1" vertex="1">
          <mxGeometry x="1971" y="117.7" width="65.86" height="44.58" as="geometry" />
        </mxCell>
        <mxCell id="qj1ER4ESAMracLOnjRn6-55" value="Camera to Capture Image" style="rounded=1;whiteSpace=wrap;html=1;fillColor=none;fontStyle=1;fontColor=#000000;arcSize=12;strokeColor=none;" parent="1" vertex="1">
          <mxGeometry x="1949.89" y="81.42" width="108.07" height="26" as="geometry" />
        </mxCell>
        <mxCell id="qj1ER4ESAMracLOnjRn6-56" value="" style="rounded=1;whiteSpace=wrap;html=1;fillColor=#E5CCFF;fontStyle=1;fontColor=#000000;arcSize=8;" parent="1" vertex="1">
          <mxGeometry x="1640" y="226" width="260" height="60" as="geometry" />
        </mxCell>
        <mxCell id="qj1ER4ESAMracLOnjRn6-59" value="" style="endArrow=none;html=1;rounded=1;exitX=1;exitY=0.5;exitDx=0;exitDy=0;strokeWidth=3;strokeColor=#FF0080;startArrow=classic;startFill=1;fillColor=#dae8fc;entryX=0;entryY=0.5;entryDx=0;entryDy=0;curved=0;" parent="1" target="qj1ER4ESAMracLOnjRn6-42" edge="1">
          <mxGeometry width="50" height="50" relative="1" as="geometry">
            <mxPoint x="1415" y="345" as="sourcePoint" />
            <mxPoint x="1545.75" y="345.41999999999996" as="targetPoint" />
            <Array as="points" />
          </mxGeometry>
        </mxCell>
        <mxCell id="qj1ER4ESAMracLOnjRn6-61" value="Python Code Determines the Number of People in the Room and Adjust the Setpoints" style="rounded=1;whiteSpace=wrap;html=1;fillColor=none;fontStyle=1;fontColor=#000000;arcSize=12;strokeColor=none;" parent="1" vertex="1">
          <mxGeometry x="1710" y="229.76" width="190" height="50" as="geometry" />
        </mxCell>
        <mxCell id="qj1ER4ESAMracLOnjRn6-62" value="" style="endArrow=none;dashed=1;html=1;rounded=0;exitX=1;exitY=0.5;exitDx=0;exitDy=0;entryX=0.5;entryY=0;entryDx=0;entryDy=0;strokeWidth=3;strokeColor=#CC00CC;startArrow=classic;startFill=1;" parent="1" source="qj1ER4ESAMracLOnjRn6-61" target="qj1ER4ESAMracLOnjRn6-33" edge="1">
          <mxGeometry width="50" height="50" relative="1" as="geometry">
            <mxPoint x="2014" y="172" as="sourcePoint" />
            <mxPoint x="2014" y="225" as="targetPoint" />
          </mxGeometry>
        </mxCell>
        <mxCell id="qj1ER4ESAMracLOnjRn6-63" value="" style="shape=image;verticalLabelPosition=bottom;labelBackgroundColor=default;verticalAlign=top;aspect=fixed;imageAspect=0;image=https://upload.wikimedia.org/wikipedia/commons/thumb/c/c3/Python-logo-notext.svg/1200px-Python-logo-notext.svg.png;" parent="1" vertex="1">
          <mxGeometry x="1657" y="233.38" width="45.24" height="45.24" as="geometry" />
        </mxCell>
        <mxCell id="qj1ER4ESAMracLOnjRn6-64" value="" style="endArrow=none;html=1;rounded=1;exitX=0.5;exitY=1;exitDx=0;exitDy=0;strokeWidth=3;strokeColor=#4C0099;startArrow=classic;startFill=1;fillColor=#dae8fc;entryX=0.5;entryY=0;entryDx=0;entryDy=0;curved=0;" parent="1" source="qj1ER4ESAMracLOnjRn6-46" target="qj1ER4ESAMracLOnjRn6-56" edge="1">
          <mxGeometry width="50" height="50" relative="1" as="geometry">
            <mxPoint x="1519.25" y="120.58000000000001" as="sourcePoint" />
            <mxPoint x="1650" y="121" as="targetPoint" />
            <Array as="points" />
          </mxGeometry>
        </mxCell>
        <mxCell id="qj1ER4ESAMracLOnjRn6-65" value="" style="endArrow=none;html=1;rounded=1;exitX=0.5;exitY=0;exitDx=0;exitDy=0;strokeWidth=3;strokeColor=#4C0099;startArrow=classic;startFill=1;fillColor=#dae8fc;entryX=0.5;entryY=1;entryDx=0;entryDy=0;curved=0;" parent="1" source="qj1ER4ESAMracLOnjRn6-42" target="qj1ER4ESAMracLOnjRn6-56" edge="1">
          <mxGeometry width="50" height="50" relative="1" as="geometry">
            <mxPoint x="1780" y="211" as="sourcePoint" />
            <mxPoint x="1780" y="236" as="targetPoint" />
            <Array as="points" />
          </mxGeometry>
        </mxCell>
        <mxCell id="qj1ER4ESAMracLOnjRn6-66" value="" style="shape=image;verticalLabelPosition=bottom;labelBackgroundColor=default;verticalAlign=top;aspect=fixed;imageAspect=0;image=https://marketplace.canva.com/ARZ8E/MAFmAUARZ8E/1/tl/canva-natural-leaf-icon.-100%25-naturals-vector-image-MAFmAUARZ8E.png;" parent="1" vertex="1">
          <mxGeometry x="2260" y="279" width="53.62" height="52.25" as="geometry" />
        </mxCell>
        <mxCell id="qj1ER4ESAMracLOnjRn6-67" value="&lt;font style=&quot;font-size: 16px;&quot;&gt;Benefits of Dynamic Setpoints&lt;/font&gt;" style="rounded=1;whiteSpace=wrap;html=1;fillColor=none;fontStyle=5;fontColor=#006600;strokeColor=none;fontSize=15;" parent="1" vertex="1">
          <mxGeometry x="2020" y="311.25" width="240" height="20" as="geometry" />
        </mxCell>
        <mxCell id="B4qMDVO-_XefzqfExV89-2" value="Writes Setpoint Via ModbusTCP" style="rounded=1;whiteSpace=wrap;html=1;fillColor=none;fontStyle=1;fontColor=#000000;arcSize=12;strokeColor=none;" vertex="1" parent="1">
          <mxGeometry x="1437" y="316.75" width="170" height="18.25" as="geometry" />
        </mxCell>
        <mxCell id="B4qMDVO-_XefzqfExV89-3" value="" style="shape=image;verticalLabelPosition=bottom;labelBackgroundColor=default;verticalAlign=top;aspect=fixed;imageAspect=0;image=data:image/png,iVBORw0KGgoAAAANSUhEUgAAA9IAAAFLCAYAAAA6ZbR8AAAABGdBTUEAALGPC/xhBQAAACBjSFJNAAB6JgAAgIQAAPoAAACA6AAAdTAAAOpgAAA6mAAAF3CculE8AAAABmJLR0QA/wD/AP+gvaeTAAAAB3RJTUUH6QUEFwARycRtygAAgABJREFUeNrsnXd4XMXVh9+5d6u0knvvBUyv7lQRCC0kIQRIJ50UQoKxgXSlEYqNiROSkEq+NOIkpJBQA6IYSy50jAH33m3VlbbcOd8fMmBbsq2VVnd3ted9HiVY2r137ply5zdzzhmDUhTIA33LCSdP8lwzwQgTDPYoMWYI0BvojVAOBIAGIImhDqg1wipBVgnOSteynF0NS80VJNWiiqIoiqIoiqIUK0ZN0EOFcxWRtC0903GoEKgwmImAm4VLNxuoEXjKMeYxnmh4xlRi1eKKoiiKoiiKoqiQVgpPPFficFbZdGvkcoQPAf19uO0mDH93xPzVVDQs0FpQFEVRFEVRFEWFtJL/AvqBvuU2mvo8yDXA8By2ppdE5HaXpntNBWmtGUVRFEVRFEVRVEgr+SWgn4oNsB5fBK4F+uRRs1oHdq7T2PRLcwlxrSlFURRFURRFUVRIK7kV0EsJ2obSL2DMd/cmCcvX1rVZrHw1cE7T/2mtKYqiKIqiKIqiQlrJCanHYuc4DvOAYwtG+MMTrnCNOadxmdagoiiKoiiKoigqpBV/xOjDg0ptsPHHGPOJQl0DwJhvO0803KpZvhVFURRFURRFUSGtdK+I/l/sGOvyF+C4gm9whseNYz9izoxv0ZpVFEVRFEVRFKUQcdQE+U368bJPWpdne4KIBhDhHOs5z8rjsbO0dhVFURRFURRFUSGtZBWvquxGY+TXQKSHPdoQ6/BIuip2pdayoiiKoiiKoiiFhrp25yEyH9cOiP0E+FxPf1SMXO+e3TRXa11RFEVRFEVRFBXSSqdFtAyI/Vng8iJ67G+4FY0/0NpXFEVRFEVRFKUQUNfuPMP2j80tMhEN8H3v8di1WvuKoiiKoiiKohQCuiOdR3iPx76L4ZtF+fCCFcOVgYrGv2lLUBRFURRFURRFhbRyWNJVZZ8yyK+K3AwtjphzzTkNz2iLUBRFURRFURRFhbRyUKQqdpw1LEIoUWuwycGcZCoadqopFEVRFEVRFEXJRzRGOtci+uFBpRbmq4h+i2Fi+J2ILvIoiqIoiqIoiqJCWmkHG47/FDhaLfE2InKRrYp9SS2hKIqiKIqiKEo+ort+OST1ROl5jphH1BLt0uI47jHmrLo1agpFURRFURRFUfIJ3ZHOETKfkCPmx2qJgxIR692hZlAURVEURVEURYW0AoAdWHY9MEEtcXAE3pt+vOQitYSiKIqiKIqiKPmEunbnQiA+VTLEemYFmFK1xmFb6BuONB5rKkirMRRFURRFURRFyQd0RzoHWM+doSK6gwhHelJ6hRpCURRFURRFURQV0sWqCx/t0wvkM2qJjmMcc6Meh6UoiqIoiqIoigrpIsUGU9cCvdQSGSCc4FWVa6y0oiiKoiiKoigqpItOD84nhKDnI3emoRr7FbWCoiiKoiiKoigqpIsMr3/ZhcAAtUTmiHCOVEWHqyUURVEURVEURVEhXUQYIx9UK3TWeDgW5wNqCEVRFEVRFEVRVEgXCfLwoFKQd6kluqSmP6w2UBRFURRFURRFhXSR4IWaLtEjr7rMSfJkrzFqBkVRFEVRFEVRcklATeAPxlCBqB26iif2bGCNWqJjyNO9+pBOjfOEgWD6G8MAoH/rX53a1saJFexW1zPrCLgbKK3baCaSUuspiqIoiqIoigrpHCsazlQjdB1jqQB+q5Zop4lVEUlL6VmOMdMMnCSYk2zaGwUOxrTfKN/8P4PBOoD1oD5mvSqWY2SRiFPtIjU82fiqqcSqlRVFURRFURQFjJrAB4HzVGyA9dim9s5Ki93snt04TA2xt239r3SQF3De7YhcLMi53Rg+sAnhPkf4G083LlBRrSiKoiiKoqiQVrqV9BNllxqR+9QS2cFx7VBzZnxL0YpnwaQfj1W4Dp8TeC8Q9LkIW0HucbB3mYrmjdoiFUVRFEVRlKLTJGqC7sdYjlYrZI+050woSgFdRSBdVfZp+0RsuePwmMDlORDRAIPB3GRxV3uPx/4kT5RM0lapKIqiKIqiqJBWsmxlO06NkNVGe1RRCWjBpJ+IXW5NbJlBfgnky0JCEMMHrTiLbVXp/VJVPl5bp6IoiqIoiqJCWsmSEDIqpLNL0exIyxMlk+wTsWeNMB/hyLwtJ+Zd1thl3hNlc6Sqd29tooqiKIqiKIoKaaVLGBirVsiqPUf0eAFdRcSrilVacZ4BTi6MQhNCZIYl/Vr68fKLtaUqiqIoiqIoKqSVriiMvmqDrNKrZ4vokomW2PPAt8lNDHRXGWSMvd+riv1YFhLV5qooiqIoiqKokFYyE0WCQYyKiSxijZT31GdLP176MYvzNIUfB26Aa2wytlQe66WhDYqiKIqiKIoKaSUDqolg1M5ZVWhietyOtFQR8KpKbzHG/A6I9JwH4xjreovl8dhZ2nIVRVEURVEUFdJKx4iXlagRsq7OQj1MREeE0n+CubFnVhd9reHhdFXpR7TtKoqiKIqiKCqklcOTDKbUCNnGxHuMxlxIVEzsX4Lp6cm5wgbzf15V7HPafhVFURRFURQV0sqhuXB3A4JVQ2RRfPYQIS33UyKJ2L9FeGeRVJ0BfpquKvu0tmJFURRFURRFhbRycOVgEAwNaomsStCCF9IyH1dipX8ROLcIu8TP01WxK7UdK4qiKIqiKCqklUNIB+rUCFlttLWF/gx2QGyOYN5VpFXoGvidPF4+RVuzoiiKoiiKokJaaReBjWqFbNrTrCzk8u91bf5ykVdj2Br7D3ksOkxbtKIoiqIoiqJCWmmDQV5TK2TToLKqYBcBHiufbJCfaSUCMMRz3L/IfEJqCkVRFEVRFEWFtLI/1nldjZBFcyIFuSMt91NiHft/QEBrsRUDp9kBsW+pJRRFURRFURQV0sr+Agp0RzqLBIwtSHvastjtwAStwTbcKI+XnKpmUBRFURRFUVRIK2/hBrwlaoWssdGc1byh0AqdeiJWgfB5rb52CVjj/EqWElRTKIqiKIqiKCqkFQDMmfEtGN5QS2TFmk8UWollPq4jzKX1HGWlfU6y9WXXqRkURVEURVEUFdLKPmqKxwuvyPD1lgnskWA+FerpQrOjN6DsE8CJ2gkOg5GvykPlfdUQiqIoiqIoigpppVX/CVWFVuZnbS/uTw/iivgpvGrL8qPBWp4oqHqvGhAzyHe1B3SI3jZir1czKIqiKIqiKPmOupr6Jage6Ftuo8mtQLRQylyZOJL7UoMBKDGWm8PLOSewK2flsc0uyRVlAHsEdhrYBezCmF0GuwMx60RkjbXumpiXWGtmbWvKtQ29qtKZYG7XHtDhntLkwHhT0bRVbaEoiqIoiqKokFawVbG/Cry/EMqawOGcpqk0SGC/xvK50Do+F1qXk4aT3hIlvSOcyVd2ACsQ8zIOLzpiXm6OBF7ue/XqOl8k4XxcO6B0JZjR2vozGpVuds9u/LoaQlEURVEURVEhrZCuKnuvQf5RCGV9OD2AWS1Ht/u38wM7+F7kDSJ4/or75eVIKhvRCLJWoMbBLBRrnymp2/ySqSSd/fqOvd/AX7XlZ8xWp6xxpJlISk2hKIqiKIqiqJAucmQ+ITsgthnol+9l/WLzcTztHTzv09FuIz8KL2Owk/ClPLYxQHJ1rLsu32hgkWCexOHBkl0bnjOV2CwI6acMnKEtvxN9xXBF4OxGXYRQFEVRFEVRVEgr4FXFvg/ktdvqbglybtNU0odpHgNNgrnRVzneaej2MiXXxLANAZ9UHNuN4WGMeTDt2EfKr9mUcWC4VPUebUmv1j7W6YHpMaei8Vy1hKIoiqIoiqJCWkH+V9bPunYdmNJ8LeMfU8O4NTGuQ58NY/l2eAXvCm7rtvLYFpfkGznLGm4RU22M/NULpf5c9vlt2zvyJU0y1tWOgnWsDDXnNm1TYyiKoiiKoij5hh5/5TPm3IZdiPlNPpfx/tTADn82gcPXExO4MzEGK92zLuNllmAs+33EyGkCdzrJ4MamHw1/sHHeiI/vuLV/2aF1YGEklcvfjoLjuVyghlAURVEURVHyc7qq+I48Gh1pA+7rQCTfyrbalvDe+MROffcMdze3RpcTy2ISMkk6JF4vA8m7ptqCMfcL3i9i127+335lrooOt7jrtX91eXD6q1PReIVaQlEURVEURck3dEc6FwLhvOb1GG7Lx7Ldnx7U6e8+7fXlqvhJbLLZ20FObS7JRxENEEHkciPOo00/Gv5i/M7h1+yaN74cwBPnTBXRXUfgnbKUoFpCURRFURRFyTtNpybIkUhYSNQmSpeBGZMvZbJiuKB5Mlu7KIR7mxRzIsuZ5NZ2rTz1QZJrSwupMzVY4beRY+p6maBcpa286zhiJ5pz4s+qJRRFURRFUZS8mqeqCXIkuqbTLGJm5lOZltheXRbRALUS5HPNx/HPLuxuYw2pzdGCqlOBMmO4VtKuiugs4Rn3JLWCoiiKoiiKokJaeYvAOY33AffmS3kySTJ2OFI4fKtlAt9tOQKvE44Pqa1hJFmAzdMRnIinjTtLGESFtKIoiqIoiqJCWjmwAqKfwfBGrsvRgstj3oCsX/dv6SF8ofk4GqTjZ0DbhiDezkhh1mfIghFt2FlCQIW0oiiKoiiKkncE1AS5xVTsaJSqkg9b4zyDEMpVOR5L96NJ3K4/D3CiU89ZgV2McFoowaOOII+n+/Gu4HZcDi0yJeWQ2lBSuBUatNqos9k/YIJaQVEURVEURVEhrbQjpuNLvarYDOAnuSpDNty6y02aOyKvMrmzScbEkFpXiqQLNweeCeludFYR+kkVAVNBWo2hKIqiKIqi5Avq2p0nuBWNd4Hckot775AQNV6fLl/n9sjyLohoSK4vwcbdgq5HE9T46OwaFAevtJ8aQlEURVEURVEhrbRfGWc3fQ2R3/p93wfSA7FdPAntRLeeae6eTn8/tTmKrSv8I4NNQHeks06QgWoERVEURVEURYW00r4IM4hT3nS1gX/4ed/7U4O6fI3TuiCi01sjeLvC2gCU9tuHNbojrSiKoiiKouQVGiOdb2J6IimZ33i5DIz9FOGz3X2/N2wpb9hSXITzAzs4LbCHMSZOPUEeTffnn6lBHTq+arhp6ZxI2hIlvaMHiWijbTjrg5RFM7gpiqIoiqIoKqSVw2ixK/Di83p9LzC0+Vy3X3Jsd97r/tQgprp7+FZkRRsxPN3dzcXBbVwbP45GDh27HDQZah0xpDZE8WpDPazytP1mHdek1AiKoiiKoihKPqGu3XlI/EfDLxUxL6Q2lYxNbSwB6R51ZjEMcRLcHX35oDvKE506bossP6w+3CkdF8SSNiTXlPY8Ea10D57RDG6KoiiKoihKXqE70nmE3DE82uRwi8C1b2mI3SGkySUwKo4Tya6eMAgfCm467OdOD+zm3cFt/OsQsdRbbMfcs73GAOkNJUiqh67heLolnf1RKq070oqiKIqiKEpeoTvSeULjncNPaHJ5wZi3RfSb2IRLalUZ3p7s7uBmIvm+EFpHgINnpN4skcOsEkB6W4TU6ljPFdGApFRIZ520bFcjKIqiKIqiKCqklf2IzxvxQWNYaODIgwo0D1IbSkiujmET/p+1PMS0cH5gx0H/fqgdaRsPkFwVI70t0uPrUtLapbJMil3NW9UMiqIoiqIoigpppVV0VRKI3zn8FhH5E1Dake/YxgDJN2KkNkcRnyNHLw9uPujf1ku0zX61pJ1W8b8yho0XRxSBqGt3ljGbzRVojLSiKIqiKIqSV2iMdI5ovHPMoCaTmm/gzMzVmsHbGcbWBnEHJHD7JTGOdHuZT3HrGe/EWWlL2vytQQJssBFGOi1IyiG9I4S3O0LRHVzU4mrjziJiZJ1aQVEURVEURck3dEc6F1rrR8OPwKSe7pSI3ldkpB3SW6Ikl5eT3hr1xa34XcFtB/3bskQvUhtLSLxWhrezCEU0YBMOeupx9jDwmlpBURRFURRFUSFd5MR/PPQ0DxYaOCJb1xTPkN4eJvFqOclVsdZM37Z7XIwvDOw4aJKyV3b1xdsd6rbjugpGTOuudNYQMdVqBUVRFEVRFEWFdDGL6DtHXCnW+R/Qv9tEXFOgdVf41XKS60rxdoWxzdkTdkNIcAIN7f7ttXBUKxmQ5vyJmEjh8JqN8d/0QJqk8AS+K6iQVhRFURRFUfIOjZH2icYfDfuqID8gs1OnuqCoDbYuiK0LAmAcwZSmMSGLE7aYsIWQh3EBIxh3b4y10Lqb7ZnWxFkpB5twkBYXSbjYFodzyxp4sV9Zu0JafHvA/MVrcnH7+X/f7RJmtS1hlS1hmY2x2ithlS0lgUMIy6LYM4VmyloqGt7Q0UNRFEVRFEVRIV2ENP1oeCXw7VyWQaxBGlpFdVdTIJ/XWMvcfkOwB0jmBsdlUzDE8FSyqOtbGoJ054pCvQRYaUtYLaWs9EpYbst43caIy8EdTEY7zbhIQdnRQJUxBVZoRVEURVEURYW00kVBJZimeSPmgFzXk56rr5dmYnMji6Ntd6WXhUtUSHsGGw/glKa7dJ0UDutshOW2jFVeCSullOVejB0Syvha49ymgrOjFfmbjiKKoiiKoiiKCuliElOVOPF5w+82yKd74vOd11jXrpB+IRLj/Mbaoq9/Wx/MWEgv8XpTne7DSlvCSlvKJolkbTt2vIkXmgkTrhf6LzTpYKIoiqIoiqLkHZpsrDtEtGDifYb/Evh0T33GM5vqcdqReS9GSrQBAF5tMOPvnOrUMdmtJY7LxiyKaIBxTmEJUoM8as7bU6ctSVEURVEURVEhXSQ0/3jY7cAne/Iz9rFpjmtpu8u5OhSm3tXjnyTlYBsyE9OOEaYG9vCr6Ev8IPI60SweSD3OKawdaSvm9zqSKIqiKIqiKCqki4SmH424WcRcXwzPema87TFYFsPL4VJtCEB6V6jT370ksI0fR18hlAUxHcYywmkpHMMZ1rum8T5tQYqiKIqiKEq+kjcx0rKUIE0lx3nijDciw8CMMjAM6HPAJxOCsxPYAXarYNa5jvMiVfWrTGUWt/A6I6LnjfgGIl8tlsZzVlM9P+k7uM3vX4yUcFq8vug7l60PIikHE+xcs5zs1nJVaCO/TI7sUjnGuvF23fDzWEn/xFSQRlEURVEURVFUSB8ghxf0L/PSLRcYOF2ESbaBk4FI64lBrf/b/tTf7PMXgwGstXBWaVO6ileMcZ6xnn044DQ9ZSrwbRuu6c7hn0Lke8XUeEalWhiZSrA+GD5ASOuO9Jukt4cJDmvu9PffHdjWdSFtCio+utER95fachRFURRFURQV0m+K54fK+3ohea9j7KU21XKugcjbsrmrmFIDUxCZ4jhmhjWxuK0yT1rsX9zGpr+aS+i2INHGO0ecj5GfF2MDOjNezx96Ddjvd8vCJSSMISx6BLC3O0RgQAIT6tyu9BAn0eUyjC+s+Og5pqK2VodmRVEURVEUJZ/xJUZaHi890asq/ZUN203GyK8F8y72iujuuyklglxoMPfYWGyzVxX7uVSVTMz2bRruGHmsMXIvRXqU2JlNbRMrJ41hmWbv3tsODeltnW/quyTU5SKML5yM3ducYGSONhpFURRFURSlqIV0qqr0gnRVrMoa8wKYT3W7eD44vYCrLc4SWxV7VB4vOy0bF22aO2qI49oHgN7F2oBOaGmmt9c2nPXZSEx71168PSFsS+cymdeku960xrqFsSMtmK+b03c2aItRFEVRFEVRilJIy5Olx9snYg87mAcNnJ1fk3XOtUYW2CdiD8tj5ZM7fZ3fjo5gvH8DI4u7AQlTmxvb/H5pVIX0vqQ3RMk035cAf04N7dJ9I3gMI1EAFjLPujsa7tGWoiiKoiiKohSdkJaqsv5eVeyX1prnRXhnPj+4CO+0xlZ7VbGfyAN9yzP9frw+/RMME7UJwfTmtpuIr4RLiBs9Xe1NbHOA9I5wRt/5R2owr9muLUiMdeI4Ju9j1RMO8nFzBZ62FEVRFEVRFKWohHT68ZKLLPIy8GnALYinNzjAF200+Wr6ibJLO/q1pnnDrgY+pc2nlanxhjbHK6WM4cWoZu/er49si2ATHetyq2wJtyTGdfmehREfLTeZisZXtIUoiqIoiqIoRSOkZSFR74nYj4xx/gMMLlA7DDMi93mPl/2fLCR6qA/G7xw+BTE/0qbzNr29NBMSbU8aW6Lu3Qd0FkN6XSmHO+08gcNNLUfRkoX1qHzP2G3gMefsJu1PiqIoiqIoSvEIaXms1zibiD2HcC3ZOsUqp7N6+aiXKHtKHouMau/PdXcM7ysOfwXC2nT2Z3q8rXv3Uk041gbb4pLccOid+h8mxvO6zY7txuV1ojFZa5J8yBj0nDRFURRFURSlOIS0PFY23TpeNXBUTzKIQSZaJ/CsPB4768C/uQH5KcIIbTZtmdqOkH4jHKHWDahxDhTTdUHS29tfi/lLaij3pQZ3sPMKRzhNnOzW08ek2v3MWJO3rt0NjsO7zfmN27VFKIqiKIqiKIVGp1RO+vHYFdbI78jdcVbdTT9reDD9RMllgbPjDwI0zRvxSUSu1CbTPscn4pR7HvXu2+7IFsPzkVIq2jlruthJb43ihASnd/Kt3z3t9eWHHYiLLjNpPhHawGWBrW8JaIvhgdRAvp88gri0ro+VGMtQJy8zdqetyOXuWU0va0tQFEVRFEVRCpGMd6TTVaUfMfDnHiyi3yRqcP6Zroq9v2XuyLFG5E5tLodqSMLklra70os0TvqgJNeXYGtDACz3YsxqOQZ7mAiJMwO7+VfJUj4d3LDfLrSD8K7gNn4ZfZHY3uTX40xTPsZbeIJ8InhO08PaAhRFURRFUZSiENLpx2PvM5jf7s123fMRQgb+TP+WhwTKtLkcmmntuHfXlJSrYQ4lpjdE2Vxfypdajn1rJ7k9XIQbw6v4SeQV+pvkQT93vNPADeGVrUI63+KjDUkRrghUNP1Ba15RFEVRFEUpCiGdeqL0PGP4E510By9gAsFhzUc4JXrE7eGY1Nw2HndzIMj6oOZmOxhNxuWa9LFsl4PbqI9J8cvoS3w4uKlD13xvcBvHuQ2My6+jr5rF2ksD5zTep7WuKIqiKIqiFLxI7MiH5PGyCVbk7xRrtmojBEc3klxVhiQcbTUHYXA6yfBUko3B0H6/X1hSxsi6hBroAJLGcOOgUawMHTxKYrRp5q6SlxlhWjK69kcDmyh30vnyqBsdY99nKuJLtNYVRVEKlNurLwGO8WfeFfw1MyfuVKMrilLQQloW9C+zqZZ/UeSuzSbQKqZTK8oQa7TlHIRJzQ1sDPbb73fV0TI+UKfvw32xGL41cCSLowfvVic59cyLLqP3QTJyH4qzgzuJS+6dR8TwlJvgcnN+XLNzK4qiFPREyHwX5CQf7pSkseFHanBFUQpaSItg5ImWXwMT1FTghC2BYc2kNpSoMQ7CxJZG/lG+v5B+LhqjxThExPaoZ10kR/I927lE7muDEbbvCcKe9v/elxRb3CauyNERy1f3/y+X9XmqK5fwMDLHjTV9w5xNSnuGoihFz+xnJoFzsz+il/u4ftrPsna9yqUlkDrOJ0s9T2VFizYYRVEKWkjbJ2OfAy5XM72N2yeJVx/E1gXVGO0J6Xhrpuh95V/CGJ6PlrabjKyQedyeQJU9oXNfTuz9OQhNwIYcPluLDXdFSC9zrPNJ8476xUXZCebUXIaV8T3meYy5n5lTX9XRTVG62pecixDO9eluf8zq1Uq8U/ErR44x1dpYFEUpaCEtT5UMsR43q4naEhweJxkvQ1IaL30gfWyasckWVh0Q91sdLetxQnqJHNFj63Fh4zGsSgxhXHhLBt+SJjC3Ozsaf2iuIFmUHWB29YWI/AWD22OeybEP6MimKFlAOMu/e5nsLmQabyp+HahoWaSNRVGUgpgiHXQM9py7gN5qonbeJ64QHNashjgIk5vbCuaFJT0rxF4wLO1Bm47tPd8fd3d44ySF4ReOK0e4FY3fKVoRPbf6aODP0INENNQzfKPuRitKV6lcFsIwxae7NTJy/etZnvlM8c1WAanRBqMoSsEK6XRV2XsFLlXzHMJw5Smc0rQaoh3aOwZrfTDMhgOyeRcya2Qgu+jZZ2T/Ydd5yKF2IAxx4FeO5x7lnt14tTkzvqVoG/0dC/vicT/Qq2c9mKnmiiv07D9F6Sol9ZMQ/EmwIjyb9X7r3yLANq6btlYbjKIoBSmkZT6uQX6opjk8gaG6K90eJ7c04rSTJOupkp4jPJf2YLfuN1mVGEJN41Ht/WkZ8CUnFRzqVjR+xpxbt7qoG/zdS4NY8zdgXM97OLtQRzRFycpsyz+3bpNlt+65S4cAw/0pOzrmKIpSuELaG1D6QeAoNU0HjBf1cHon1RAHUGotRyTbJtx8uqTnbNYt4YiiqMs/7D4PBGzC3Y3wbUfsRLei8Ti3ovEn5rw9ddragYbUPKCiRz6b4RmtYEXJRl8SH4W0XZLV63mpab6VXeOjFUUpVCHduhttvq5m6TiBgXpCQ3uc1NLWvfuFaAm1bqBHPN9SO74o6vHeXRXUL+9L8vWyPs2v9PqXOSf+rLbufZiz8IvA53ro03mk7WKtZEXpIpVVAcT4J0YdsyTLV/QvPtrV+GhFUQpUSHsDYpeju9GZGTBiccr0mNwDOaE53uZ3FtMjko4lCfASY4qiHmttjAeTkwCMEfNtbdn7cNuiMxBzRw9+wpe48fQGrWhF6SLl4VMAv15+O7MeYyy+Cek04YQu1iqKUphC2oHPqkkyJ9AvoUY4gFNaGtv9/ZM9IE76ZRlFixTPOeJ/tm95JL636c4Rk7R1A3OrR2Ps34FQj31GdetWlOzg+XnsFdn1Ipk/38Vwqk9jzkt8saJRG4yiKAUnpOWxXuMEzlaTdMKIZWlM2Koh9qGfl2ZYqm38eE20jIQxBf1sS+SIoqrLh+XkNzOUG4zorvStC8rwuB/DgB79nCKa9EdRsiIQzZl+vqKyerUNo44DYj4tAqhbt6IohSmkret9EjBqks68JMHVpGNtOKmdXelmx2FpNFbQz7XEFpeQThLg7/at8L6Lm+YNPbloG3WlOLjuH4Hjevyzpq3uSCtKNsYMzOk+TuuyK6RF/IuPNqKJxhRFKUwhjciH1BxdMGQvjZM+kBMT8XZ/X1Va2Nm7n2V80dXln+2Z+8x1nOuLtlGX1dwMXFIET7qZm05fr6OYonR1zKg+EaS3b/cLytIsX9E/Ie051dpgFEUpOCEtT8aOBjNazdEFQ0Y8TEjdu/fl5OaDC+lUgbp311HCShlSdHW5WI5khQwFQODK5h8NHVl0Rpiz8HKEG4rkaRfoCKYoWcD6GB8N6/jK1G1ZfgC/hPQuZk1ZqQ1GUZSCE9LWyvlqiiwYs1zdu/dlZKqFUtt2caHBcamJFmb27iVyBFKkERD32jPe/M+AGHNtUT38bdWngLmHogl/MRofrShZmRj4GR8t2XXrvnVBGZijfSp7DcaINhhFUQpOSBvMBWqKruPG0mqEfafiwIRkc7t/e6Ssd2EK6SKLj96XP8lZby8iiPns7rvH9iqKB5+7dAgO/0IoKaLJv8ZHK0qXtaEYhDN8fOtmV0gHnMkccLpL9xXd0fhoRVEKb7oklTiCnK6myMJ7oNRTIxzA0Yn2hfSTJeU0O07BPU+xZezel/UygIW29Zh5gbJIInlVj3/oyqoIXuofwPDiGciIU+q+qKOXonSR2QuPBfr713ezLKTF+BcfbUXjoxVFKTwhzZllR4ApVVNk4R3misZJH8BRB0k41mIcFpQUnnv3c4wr6vr8s7ztpSjCp3v8A8civ8LPZDv5gLCIqydq9kRF6fIMy5zla891mp/P8jX9GvssXnCJNhhFUQpumPeQE9UMWRTTUd2V3l9Itxz0b4/E+hTUs6yWQeyQXkVdn3+zp9FM6M1/Hh+/c3jPFZmza24CPlx0lSxofLSiZKUv+RgfLbzGdRW1BSqkX+WmiXXaYBRFKTghbQwnqBmyaNCICul9GZFKUGLbt8mCaBk73GDBPMtvwrrm1ECUB+XUfeaJfKZHPugdCy8A+X6RvhVUSCtKdvAxbC7Lbt1zq0cDg3wqfI02FUVRCnPKBEeqGTpGC+7hX2VBde3er4EhHJFqf1faM4b/lhXGrvR95f34fUjXnGD/M6WBD+yaN768Rz3g3OqjseZe6ECH73kIxuqkVlG6yq0LJgBD/buhza6QTpup/o06omOOoiiFqXMsDFQzHJwtEuGXyZF8teUohMOfzGCCenrDgQxLHvxYsH+U9yWd5wcK3dN7ILf0H0ZT8zCtTOARezLbecvFvTRC4v095uHuWNgXj38DRerDL68yY/pubeWK0kXcwFn+3jDLO9KOj7kh3IAKaUVRClNIGxXSbUjg8Eh6ANe0HMeFTZP4bXIEXwqvJUoHdpt1R7oNQ9IHz1u0JRDiodL83ZX+ZZ9B/LTvYERcEonBWplAGpe/eafto73kyh7xYJVVASx/BcYXbeUadetWlOwgPp4fTQpXXspu8X0T0vXUT1qu7UVRlIIU0vh5NEM+v/KApV4vvpWYwNlN05jZcjRPpftiMXw6vJ6hpqVj81BXd6TbCunkIf/+i76DiDuH96JNG4gbf47MshhuGTCMX/ZpDRFrSQzCSkArcy9/3n+OeE7DzwYV/oJcaWQemHOKfCDU86MVJRsYP8+P5iVmTG/O2tXuXhoEOcmnsi+i0ugOhKIoBSuky4vZABslws+So7goPplPNp/IP1ODaJK3RV0UyxXBzZm8PJUMhfTWQIhb+g87pON8rRvg+/1HEKb7FyqaHYdZg0dxX1m/t3+nbt378ZyM41UZ8eY/A04y+N6CfqA5Cz+J4fNFX7FWd6QVpcvMXTIWYaSPd8yuW3dD4iQg6tOKg54frShKQQvpottCTYjLI+kBfLb5eC5umszPkqPYZCPtfvY4t54YmWTi1h3pAym1h7ffQ7HefGfAiDY7zmkD95f14YPDj6SP9XCle+1b5wT40uAxPF2y//pSc8tQrcgD+Iu8veFi4IqCfZDZNacj5mdao+xk1pSVagZF6SJpz9/4aCPZFdJi/IuPNizSBqMoSqESAPGKYRvVimGx7c2/UgN5LN2/Qxm4AUaZDL2ldEe6DY1Ox1yiHyjrwzOlZZzZ1EAfL8XWQIjnIjF2Blq/f2HjnsNeI2kMr4dLOL6lKeNybgyG+MrgMawPhtv8Ld6iO9IH8ifvLL7t3IuDReDshnmDB5Rdu3VHQT3E3OrRpOU+zNuHYxcvZgHG6EqgonRd2J7p7/2yvCONb0JakMBibTCKohSukDbG68mbqGttlH+nBvMfbyBbbTjj728nw+/oNLQNK0ORDn+2zglwfztHYo1LtnBk4vCLGuuCEe6P9clYSL8QKWHW4NHUtSP6PRsmmeyrFXkAm+nLAjmGM80rAK6xgfOBPxTMA9xVFaOZf2MYoLUJiFW3bkXJDv7tSBvi1CeWZ/mafgnpFcycuFObi6IohSukoYUeFifdIAEeSg/g3+lBvOh17dEWeb3YJSH6mWTH5qKeo63qAB6Ndf0koYsb9nToc6tDYR4s68Ona7cx8BDZwvdlfq9+zOs7lKRp352gNT5aXQ3a40/2TM50XwHAMVxQMEK6Uhxaqv8AHK+1+ObgpfHRitJlbq0ZDjLGx477LJUV6axd7o6FfbF+nVwg+eXW/cOn+xAJ9CJtyjEE2/+QbcJzGpFAAzdNrNMGr+jcQQxznu2HTffByaWetE24wVaxlrZCIL6H6ypqu19IC5voQUdgvWTL+FT8RBJkR9AmxKUycSQ/iizD6cB2s6RUcO3Lv8r6sixc0qVrOAjnN3WsL6wKRkgYw3cHjODHW1YfUv7GHZeb+w/jkVjvQ14z3DRIK/Ig/NNO5Q7n15SYBALnSyWOqST/M7CWLfo+Yt6jNfj2UEe85Vk1g9KtVC4LEd3THyfQH0x/HK+f/4VwmsAmsLIN12zO+rnprvgbHy1maZavOBm/Vo6ND4nG7ljYl7QZjZFRGGckSH+QgeAMbP1v9v0BDzhkhIsBV4AUzK4GqEPYjGFr63xatmKcFRj7CqnQMhXbSs8Yu8WhvHosHsfjmGOAMQijgFHMqRkJhMn5PqIBL/3Wf+JFYHa1h7Abwy5gDcgbGFZg5TnKw0u5emKqq3cNGMMGEU7uKXV9gtPA5cHN/CE1PGvXfDLdl+tajuF74dcpN4de+DWeCmmAetflL+X9+XWfrq/RTGxuYkAHd5fXhFvdyBdHY8zpN4wZuza3uwDyajjKtwaObDceel/6emnc+n68oVXaLg1E+Y9M5ArzDED/eO8Rp8KGJXld6Nk170fkJq29/XiWyoqWgix5ZVWA3tF+pOmHNf0wnYjh6fr7uxyzz3EPQgoxjYiTIGh34ppNXDu1vuha1W01R+DIOzCcgeVkTP2R4LqtMVACkov3pbTOsowBC8yubgY2AevAPAf2eWygihsmb+1kWzjL3xCvAk40htRk5TJzq0djOQEYjzAa9vmxlLVO8A1vx97t+99dpheGXsDRrcsP5u22HUjBnOr1CC8h8hRGnuD66Us1F4WS99xZM4i0nAZmKjAFak7FmtLsdh1fcPeG7w0AjgJzYesrwEBjKs7s6kVg/otx5nP95A2dEtICG3ta/c8Mr2GdLeFpL3txrVXpfrzXm8jnQ+t4T3AboYNsukmquFy7BXgo1oeq0l6UWY8UsD0Q5KVIjHSW5kgddesGWB18Ox57fq9+rA2F+FjtTo5OxEkaw6vhEv5T1ocnSnsddiyIiOWOrWu4yI7VQfUQ/FnO4oo3jx925EKyfRRLNpmz8GSQ3yHqq79/R5b8dOuuFIfoM4MJBEYiDAcZgTEjsTICw3CQkWAGk96ryJwcvuEPFIUGMLZ1h8uTvYJNtoBZgzEvg30Z475EvfsqlRPjPaYt3f7MceB8AMPlIEfuq13zlCgwvvVH3gEGHM8yu3opIn/DC/0io11FMWf6OtN0sjzeim/x0U00JF7O+Ft3LIySds7A4VyQSWBOwpPeeTxJGgmMxJh3gYE5NRuZU30fYu5m5tRXfSvH7JrvgFzs45PvZua0dxb0WDan5puI+OO55rhXMWPyspw967wHwrT0PQtjz8OY80jLCa2jdg9e8xFKgAqQCsS7jTkLn8Hyc5oS8zMJlzHeE2WzELmtp9mnEZePxU9mpS3J+rX7mySXBbdyaXArQ83+mzipDSV4e4ovAfAzJeV8Y+BImpzsLiREreXBda9SIof3Fk4Yh7PGHIvNwozNQbhl2zpGNUU5LvWTvLBxEI9UB7PN+0kAjzcCn2OQqcVAVcmXN56Tl4107tIheKklQL6lYE/BweLxfBPS72PW9H/k7P7z57usHzkBY49FOBrMMcDRwAQgTM/GQ+R5HPMYlocYteFprrjCK6gnmD/fZcPw9yHONeBzxupux9Qi8iPCe37ItRclDvnR2xYPxvG2+CpWrp/aP2s7nCKGOTU7gO53uReeZNa0szs8yU/0vRTDx0HOAiI9oGEJmEcQbmDW1Je6X0hXPwe+ep8+yMxpFxV0Dc2ueR7kJH/eASW9mHVik6/PN++BMKne52GdyzHyHqAXCsBaROYQrv3lYcd8wLHWPtcTrRDD48eRV+hjUlm/9k4JcXdyJBc1TeKzLcfzj9Rg6mjN9iwtxZls7LR4Pb/cvJKh6ezau6KprkMiGmBNKJIVEQ3w6d3bObupniV2fF7Yd6zZxsUmPzd607jMl9PfnBlMkcpj828lqbIqgpe6L+9EtDF3ArkXTRKo9vV+Ny/qx+2LLmZ29feYXf0/1o/YA7IMMfPBfAe4EjihCEQ0gIsxExFuxFDF+hEbmV09j7nVR+e/FBDD7dVXsH7EK61119NENID0xvBtkn2eYm5V70P3Z8/n5zdLsuomfPui8b6IaACHw7t1z17anznVt5DssxEjfwY5v4eIaGjd7TsfI88xe+EPuXtp9y2mVi4LAcf4vExQ2Mea3f5iKchxPt3tVV9F9K0LJjC7eh7JPtsQcz9GPqYiej9GY8yPSfZZxu0LLz3sUBbwQkuRAkgO1AmGOS3cGVl2UDfsrmIx1KT78O3EkZzVOI2rmk/iT+FB1LqBomx545Mt3LNpBae0ZG88uKixtsOfXRPMzpz7tHgDn6zdDsBSOSIvbDuZ1/mo80Te1v2f7Vvzx5J47/oT866AsehdwNQ8K9WjiPenPJgYrux0PGgmzF54FLNrbmJ2dQ0huwNj/wN8A3gHUKbv7rcYDHwJj2XMrnmIOxZOzstS3vbMScyuXozhL8BRRVAvk7Hhv1ApziGkkb+JxrIdH+3iX3y0HCI++q6qGLMXfgtSqxBu5M1EYD0TF8xNNKSe4Y6F3bNyX1J7DH4vSjqmwM8Hj08C/JrM+5Po8/aaE7i9+r+47nLgSyqeD8s4jLmP2dX/O1TfdMx5e+owPTeX0sluPd8Ir+j2+1gMz3vl3NF3GO8aeTQzB43mP7E+RSeqe3tp5m1ZzSUZxDUfjAFeionNjR3+/KpQOCvl/+aODW8lKMsXIT3JWcG5zgsMMXvyst5flDEsk5Gtc0nHnpZXhZtdfQPIJ/PMZGtIOh8ENx8SPT7TbVe+dcFQZtd8h9nVy8EsB/khMAU9T64jtO5YWVPDnOo/Mu+p/DjvfN4DYeZU34LjLMGYiUVVI2LeSdmirx/iE2f63EKy7KYk/glpG2hfSN9efQnNkVf3eqaUF1HrmoQ1z3J79dnZbyc5eM9Yb2lB14Yx/i28i3SvkL5jYV9mV9+FkecwXKTv34x5B9a8wOyaLyBtM2Q6eyuxuidb4L3BbXw85F9OtaQxPFVazncHjuCCUUfzsWFH8Ms+g3gtHKUYUjWGRPjmjg18decmXOn8E1/QUNuhI8feUiahrm/sXb9zM333ps9P4fKSjM4Lm04xbxDA4wPmqbyt9zd3pUVM/gjp2QvPB27OM1M1IvbdfG3KLrCn5sGMIfuJxm5bPJg51b/CddeAfIvi2LHsPrkkfIhk8AVuX5Tb/AOzl/Yn0efhvbuExel6JVLJ7Jrz2rUNHOtrWZxgdoW0Fb/Ew9o2XjA3L+rH7Jr5GP4NjCjSvl6O4UHmLHxXdkcQ8VtIr2LWadsLvC78W1RynO5bdLi9egrWvAB8AfIwyU7hUApyF3NqHuG2xYPbCGlxnPt7ugW+ElzDWYHdvt/XYngtHOWXfQbxsWFHcOnIo5jTfyiLo2WkTOEsCu3qxM76pfW7mLttLTHbuRDQixoz233dN2N3Z5iQbOad+5xX/bKMppnch/tGSXKcWQfAVc7jmDxdjrlXzsRrHVLyw4V69sKjwPwlz14eAuYTzDrtldYJTh7s6ImXXSE9u/oqHO91hE8BxZd5sfsYirEPc3v1FTm5+x0Lh0Fqsf/uy3mHA/J/e4XzPv0oeQb+7vRs5LqJ2UtsVlkVwZgTfCr7/rvRc2oqCNkXQS7Xbk4EMfcxpyZ7ibqMLwmz9mVJ4VeDb4tKaRoC3ZNsbs7CqzE8SfEuTHUH5+J41cx+ZtR+QtptaHgYpKknP7ljhFvDr3Kkk9vH3BwI8Zfy/lwzZAznjT6WGYNHM79XP9YF8zunznORGE+UZh5OMTXewD2bVjIylcjoexOSzYxLdvxY2xbjsCXYtVwdlzTs3m8WtETyI9HYKc4qgnvzUR1hNjPJrMjLNrJF+vCUPQ5geP1PhvXLaWHuWNgXzL/JtxggY77NzKl/A1pdZIXjclygWpqmZ+cIlsqqALMX3g3cQ3G5ZPpJAMMfmb3wvb7e9eZF/bDmEWCMVgEAgyF19/5dyecFhmy7dZeFT8G3hS9Ts4+InonIo+TfaQq5JIjwR25f1PX+JmIQ42/eEpFFBW391njYwT7dbVm3HH84u/pLiPk5xZGw029Gg/vPvUn89h5Tfwlxg3mkpz95ibHMiy6jn0ke9rP9TZKPBDfyw8jr/CLyMndFX+Hm8Ot8ObSGS4NbOdWtI9bFZLtx47CgpJzZ/YZx+YgJvHfkUdwyYBhVpb2yfoxUVxmaTvLtASN4PRTN+LsjUwl+s3klkzKId76woTaje6wJhrucsfv45v3HsiX5Eh99gHDO56Rjf9rr3m1S5vicFaKyKoA184Ej8ss65p/MmPL9t/6Z7n0iOd+xlWoqjc2KzWPRv4L5rL5jfRDTmN9xW40/7btSHEL29/id9Tf/eR9zFn5sn/7tb3y0zXKiMTH+Jhqb90CY2dX3IHI76nLanpF6g/1ply/Tmond54XNAhfS1s/wNJP9+Ojbaz4B/Ej7ULe28ZOINXxp7wv5zTFZ/maMubSnP/pQ08Lc6Kt8Jn4CCdoXq+8JbuMboZWEzQFC+YChXoCNEuE1L8Yru/vyGqW8Ho6yu5MJxjYHQtxX1o/7yvrhinBcMs7keCOnNjdyXCJOSHLn0ltiPZodh5mDR/PbzSvon05n9P1yz2Pe1jXc2W8Ifyk/dAJOV4TzM3XrDke7/IyhA1ym8ydj9/65AC93FnCjvYq45N9C479kCnP5FWVuywlAbhR/WWQuwjvya8xlOWGu2u+oGutMJPdu+guzZPOfIvJefbn6RjmO/JFKmZqVhZBDUVp9I5gL1eTtis87mbv0UWhoxsPn0wqyfh6iX0I6gTWbSPatApmmjehQVcwFzKmp4PqpVZ2/hu/x0Slc80KBd+zpPkZpZFdIz1k4HZFfognF/GgnM7h76by3lKTb0vR3YFsxPPpJTj2VkRXttrKp7h6+E3qjrYhud4yDEaaFc2U3n9+6nR9tXcND617lv+uXc/P29XywbgfHJuIEOjFX9ozhxXApv+wziM8NHcc7Rh/LF4aO5dd9BvJCpMT3+OrGvYsD2wJBbhg4moTJfMfcFeH6nZv56s5Nh7TJ1OZG+nmZCfVsZOxesY8Yr6OElTIkL9rrJGf/HekymrkkT0+WaCLC/XYKIuRmR/r2mk8gXJNnZtmNK+/m2qn1B/w+94nGjOl6xu451V9H+Iy+VP0fGojVdG82+lsXTMCYb6upD0ofvPSPSEfOAPx0IxMCLdlOUOSXkN6CK4+qiO5oTcuMLn3fMSf5XOKXmDG9ucCt7t+OtGOz149vf7EUMfegHh5+MZQ6b+pbA7+5iATCL4rl6S8ObONTwQ1tfv+J0EYck5ny9Xbv7505IJ3i3MZartu1hd9uWsnja1/h51tW8YXdWzk9Xk+5l7lLeMI4LI3EuLvPYD47dDzvGH0s1wwZyz29W4V1opuF9ev7ZMR+JVLC9wcO7/Re2qX1u7hryyp6H0QsX9iY+RFPa4Jdz9j9p/J+pPeacak9AsmDBb2RZgdDaZsk72NOVd72rb3u3f4L6dk1p2Pk53lmDg/4CDOmr2xnhjQpx2VLE2nu2q7WnJrLEL6n79OcUflmnFY3TOANrvsrNMbucIa6HIdKn2+6gusqarM3AX9mIDDap7KPRrP4Z8L5rTk/Oon1fUe6sN2651b1BnO0T3dLAS9nT5TH55J3IW09HNees58PshOwP7PWuREpjkyr14TWssZGecxrdTWOYpno1mU4SJk2QvpAImI5pbmJU5pbE50JsCoUYWk0xrPRGM9FSmlwMltAajEOi6MxFkdjAARFOCoR54SWZk5MNHJCS/ytY5yywf9ivff798OlvRndp4VP7encCQcntzTxm80ruX7wGNbsk2it1FrObKrP+HrZ2JF+LVzCdwaO5DvbNrCEfHHrbj+x2FnmFcawjTUMyrt+9YQcx0bb/yjw78i51gyK8nfyL0v0LGZOe7Ct/FlaAqmjc1y2F/liRWOnvz3vqQEk5aeoC1kuGUZZwxXAH7J+5Tk1HwJOVxN3REtzis/3y65LkuNMLYqzOQuTIGLOA/7SqW8bTvK5vIsL2to2Oh3EL++SV7K2ez+75hhEPqXdxfex/7T9Gos5M74FzL3F8vyOEW6OvsbRbutcsr9JEiSzcDNvVwhJZdbnDDA+2cIH6nZy+9a1PLr2Vf5v00q+vHszp8frKbWZh7yljOHlSCl/7N2fGwaN5oJRx/D+ERP4zoDh/L28L69ESjrljg3wUFkfnouUtvn9L/oM5rHSzidFHp5K8ttNK/cTzuc01RGRzJ4/7rhsC2RHPz1c2psvDBnD0xyZF210knnjIG1I+ID7dH6+h3D4m0zvtWfu6N6+3PCuqhg4/wYG5tkA+wdmTpvb7t9KUieT63N4DV1z604Ef5Z3Ni/KF7lk3727dZf7O2rcvCXL8dFmqpo0ryfrnfNemrt0CP5ln27FLXQhLdN9vFs246O/gb/hJUorI9oY3ZH01zHEi8UCUSzzIssYYJJETIYu12JI7+j6TqhD627yh2t3csfWtfxv3TJ+s3kln9u9lZNbmnA7mWRsfTDMf8v6cmv/4Xxy6HjOHn0sHxg+gW8NGMGfeg3guWiM2kMkRmt0XH7RdxDf7T/iIGM7fGfgCF7rQqKvEutx27Z1fKy2dWf74k64da8OhbO6mP5cNMaCPBHSk52DH3X1UedxHGxe9qs/2LMJkhrtg4gwNEd+DZyQVwYwPEdT8OqDd/o8OD+6K4nGZld/GMNl+g7NC85k3lMDsnrF0rrPAuPUtHmKI9mNjxaZrEbNayF9bOdEYdpvt+466qa+XtC2Nj7GR2dLSN9WcwTIFdpRctJgBrdRUaaieaNXVToPzE3FYoZBJsGd0WXMas7M0zK9M4yks78A5IpwXEuc41rifLJ2O02Ow5JojEXRchZFY2wMdm731TOG1aEwq0NhHtrn9zHrMTyVpJ+XopfnkTSGbYEgb4QPH3vdYhyuHzSaezatZICX6vRCwjW7t3J0opmTmjM/53tNls7gDoowPJ1kSDzKMq805+0yTJoTzeqD/n0UOzjNLOdpOTbv+tRyRvALuaACfv2CPBod6bnuROPIKMSMNDDcwjCD2duQJQJEBHY4yE6BncA2wVnh4r1IOL7MTKd996fZNd/DkG8vkG2kzXsOfTakPTX3HtFu54T0HQujWG7VF2je4JIIVgDzs3K1u5cGaUjNVLPmLSkMz2ftapXiQM0kNWtei7vhnVTgfgvppd1+ikB3cvfSII2pyb6FOThOdhbEHLma3CUYa0JkOcZZAawA2YKwG9iNMW/vjBlrcYJvx85KysE6rS6t1pRgbBhjDNj+YFp/RAbgMBikP9b039sPyvKr0Uhpu9uRTjB6s021fALyMACzmzjeaeAr4bXskSB9zOEFoaQcvO3+5GAptZazm+o5e68L9IZgiEXRMmqiZSyJxmju4pnTjY67d1e5czvLOwJBZg4ezS82ryIsnR9D39FU16nvrc7wbGtXhMHpFGNSLRydaGZMKsHYZDOjk0kchPn2NH6ZB23yRLOaMIeOc/+YW8XT6WPzsk+91mvI172q2I0WBhkAaRWOwpsSUg6YKzBu3wRvBsHiQCLmeVW8ATwlmIfcYPgxc/rOhtZEV/K1vJvkYq/gxtMOHSAuZmKOdfQmrp+8oVPftOY6YJjObvOKKVkT0g2pDwGj1KR5q6qWMWNa9rIily85Guv3OcNKZnP1Ts7FLSf7/J4p7ERjDYmTwCnx6W5JAru6nmhMxDCn5v0+W2oFIvdi5H809q6h8tikb3e+bfFgkCNw5GiMTEaYDByTw4WEdLtC2py+syFdVXaTQX5bTGPVBYHt2A6OOqnNUcTLzUx4RCrJiNQu3l+/i4QxLI3GeLqknAUl5WwPBHNSpuXhKN8ZOJwfbFvvuz5YdYgd6f7pNGNTb4rlBGOSzRydaDmk4H82TxKNTTlIfPS+vMcsYgafooFo3vWnfzVM7/dj+TEB43X1Ui5wNHC0Qa62qZbUE/+Z9uK5r6eOTxPIs0RX5hpmnvbUIT9yV1WMZibkuKCdC7CfvbQ/pG7QmW2+aSuTzdW0L6pB8xmb3RhULz0Vo/kC87t/dzKJppGTffV8ElPY8dFiTvPRXC9z7UWJLl9lds1kjG8Ln5sQZjBz6l8xJjfpCW+YvBXYuncO84u3xLWbvgwxVwF+e9e0HDRANlDRcI+til0kcHkxjVdOB3w6bEMAWxfMi/KGRTgt3sBp8QZgE6tDYRaU9OLp0jJeDpd0eGEgG/yvtDdj+iT4zB5/jyNfHYpQai0jUom3dpnHJhMcmWw+6BFbh2KJzQ8hPfEQ8dFvUkoL73Oq+Z09J+/60rZ0Hx5rOIXzy7ObF2drqm/wo6tvmpiWQJ49sdzFzGmHP0IwET6V3CcF6WR8dOomoBdKvrW97MQz315zQh4cy6YcWh1ld0A1aHx0/pP5y25eTTlJGeNrKW16SWF3LWc6vvl1S3bio425zKcyv4zYc5l12nZm5Vm9tYrru4C7mLPwasT81L85ltl+yM5pXL4oHmfgd9a/fJ6upB1SG0rytnxjkwnGJrfzsdrt7HCDVMXK+V9pH16KRH0R1b/qM4jRqRbOa6zz7Zl/24X47DYyAZeXZHRe1OUU3ujQ5z5qqvgd5+Rle/z9rnOzKqSTEuQDa77BhmSeJYs2PENDrxkdm2w4E8n1WTO2Exm751b1xuNqfQvk5Qywf5becJ9TW+b9ZD/bGbun5MmTNYBZCPIsIqsxZjNCCkgjpDBObxyvmyZfThixY8GcCHISmLF5VuuZ71wmvZPA8dPVYAM3nr65wGf4/mXsNjyXnevIdB+mEymsuYwbTtue91V4/fS7mVMzEJHv+jSZ2nRoIX1m44704+WfNsbej54VCgKpdSXdkmCsOxjgpbiibhdX1O1iRyDIY6W9eCzWi5fCpd3W7wT47oCRDEmv4riWuG/PmS1eltE058FRxIPZwwizs0Ofnea8xpF2E29I/oWt/rP2NOq8Unq5TVm53jXrv8TTDcfnm4hej7XvyyBO6NQcl7iJeMtLmb8vop8GieXhBDPe+iMJMBHotjgHh7zdjZeuJ+y4/cVSTPzDefRQzd1Yl4VKMw3xZVm7WmuYyXG5nVXxH4Rf0tTyIJUV6byw8s2L+hG078CY94JcCkRyv8iQqWXNKf7O2qWw46Nve2Ycfub+8LLgWTJ/vst6H84JN/IAN0xbUTB1OWPK95lT81nobJK+TGxjXj2su0jgnPr/ek/Evo3wXYqc9NYItilQkGUfkE7xgbqdfKBuJ5sDQR6J9eH+sr5sCGZfNCaM4YaBo7ln8woGplMFZaclMj4vyjHFeSOjz3/YPMm35UP5N+uzYf5ZexpX9Xuky9eas+0Kfr3zwvyb2BrnMmZNy2ClVnJ89JUsynjCWlkVAPlSHtj7WTD/xfIMkn6FG07b4mus1u0vliLxCbhyEmJOAqbuXRjJ9epqFjJfNn0AjL9Jp0SWYpwqxFbjBt4g6Wzkpol1+00UVw3pnjJJyCEowzD2WHBO3pvheCqQb4tF+/J8VsVma5hJrpL0rMCYq7l+alXeWflrU3bRmrxvPrOX9sekbkH4VA5L1AkXP+dkXz2fpMDPj3bNWT6aK0lkT9cXxNaPnADiwxEz5vmCqstfPBsA815/FkScTR1Shc5Zjd+3T5SNA7mqWEW0VxsivSPSI55laDrFx2u3c1Xtdp6NxPhj7/4sLCnP6hiyMxBg5qBR/GLzaiJSOKchLM2T+OjJZCakP+Q+yXftB/DIP2+J3+86t8tC+tH6iXx146fy7dEE5FPMmNLxIyxuWdoLUuNzXOrM3brLwpcijMxhqecj5gfMmrr/TvqNPpdi1olNwHN7f1q5eVE/wt4HEPMFWrOH5gKHymWhLmVPNcav3WgL8iucwDxmTD70ZPKKKzxgTzeWZRfwEvBnACqXhSitPxO4au+xeqE8G3Ky69btmak58TUUnsQLvme/RZN8ZebEncCnmVPdjHBNjsbsjZn3Z5+PvnIp9ERjZ/p4txezkmjMcEquo8TykqsnpsjWGd0devl26P2KOGUNnzHwWDHWiW0IktrQ8zzMDDCxpZG5W9fyu00rOSbRnNXrvxYuoXLgiILq50vyJGP3JJOZF81QdnOOeSkvbfpEw0msTXb+JL3XW4bzgdXfyMNFArmVmdP/nNFXgsmJ5DpMxu1UorFP56i0uxHnXcycdmUbEZ0vfG3KLq6ffheNLSdiqMzZ8gjbO79ieWfNIMCHiaR5HWE6M6dffVgRnQsqj00ya9r/mDXtoyAn+jkZ66D9siukHXIRH/0ETS0XFISI3l+Y/j6HN8/sqMJ5D4SBo3wsoEc48SyFzVk+3is7thLx5/QP4QxV510U0gBmIimTDl4mprPZXgtURDcGSK4teesM3J7KUYk4v968knc1Znfx//HSXvy8b2HkqqujhFWS+7IG8TjZrM74ex91qvLSroLh3l0VnfrunnSM96z6PrVeaX49lJFHGLnxG5kPKCbHbt1YEl5msWy3LhiKmHfkoKwbwZzBrCn/LYgBpLIizfXTvgMsyEGDrOuSy68n76P7XXwXkTSnMWtaYcRSzpz+Gsa9FMgfl6psJxoT34X0Shy5jMqKloKbJA3f+CyY2hy9b9Zn9PmWPscCfh4ts4wvVjQW7AR4zuIRwOiCE9J+xAC38g5m13xUJXMXhTSAOW9PnZsofacxPF4MxvEaAyTXxnq8iH4TV4RvbN/IKS1NWbtm/3SaNIZUAZxTudQegc2DXc/jzVpKTOZeP5c4i+lHfV7a9g+7z8u8/+HwkbVfZUVL3iVRewMnceVet9MMJ0Qm14nGlvHVMzJbLQsEPoT/cZT1iL2QmVNfLcCh9EH/byk7u/Z1rujmAr6K23LB3tjTwuH6yRsgX1x9TC0zJmcv4U+reBjq55QKYz7KjOm7C3KCdMUVHiIv5ujur2X4njnR5/IVuFu3PdvX+1m7NEtXGuGjkX7H7OqfMWfRkSqdD5giZTyUn7+tSR7gIqKxewXe21MNY2tDre7cRRZ/4CB8bvcWPju082GcYRHObKrn4obdTG1u7NDZ3Hkx+3WPAS/35ZhsOjdXCpHm/c5C7rYX5J1tl7eMZGl8AhNLXu/4HHbD53ioLu+OOG3Acd/HdRW1nXwZ5XZHWkzmHkUiH/G7lIjzIWZNe6UwJ2U8huEHPt+18wL19mcGQre67u3B5eLO95mcV+hj4ENm3MOXY2lWE+uJ9Xs3+qdcP7WmsGdIZl1uJoWS2YKisSf6GkFU6InGjPiZaKyFXuEshbWY4T62RwN8DrGfY3b1CjDLwL6dZNWYJNC0tz3UI3gYk+atjPPShJEkOBYrdXs/14xjWr1THFuHCbZ6/yQTLVhpjTWNpCXf3x2dSkFtLiIhVY2XC6XfB3MDPexorPS2COltEYqVE1qaCYmQzHAX+fiWJi5uqOWdTbXErFcQz7ozEODh0j78p6wPVTuOh2TuyzTZvNHp737UqcpLIQ3wh13v6LCQ/t2ud/Lj7Zfm2yNYhA93OrbzjoV9sb66j7XFsZkJ6bnVR+Ph8+6G+W3BuHO3hxd8jYDPpxUY2dqFL19Cd3ocGPkK101fW8CT7FfzwivNZDk+GpnqY+mbCJgfUOhk6mKdHZI0JlZm+B1/z4h0nALfkfY1PvqlvcmwslHwgTmy2BEgR+wn/aQd2X3gL8W0/s608xlrgL3RSa779hvJC8Ds6v3Hkjdn6kIaI/scDefUg7wpPt48GhOgHoyHyE4cswWR9WDXkA6/mI1cDZ0+y8lUkIamm9JVsaUGfgOUFfoYKZ4htakEWxuk2OnotGFQOsWFDXt4V+MeRqYSBfFsSWNYFC3jwVhvnijtTXrvwzY3D82L8k3qgpA+2azmeLOWl2V03tn93t3ncPvwXxA0hw7lfKbxWD6/7iv52Cm+xcxp93dBhk8i14uOnmSWsdvjEp9LWE/S3FDQg+dNE+uYXVML0tu/l5dZ2YWG3Y1nypmnuH7a/xX463BdXpTC2uwKaSOTfVwg+A1fmbqt4CdGIrvwO0xN5KXM8x+YE3x8L8azera539yyYCTg50kaS7N4rWIUK6V7f/bOpsyAg6v5/VdLMIC8+RkHAimYvXA1OIsw9iFc5+HOjFNdPhQ5UNH4N6kqe8Ua+SPCKYVaM7YpQGpDCZJ0KHZWh8IkDvGyCItwRlMdFzbWMr25AVcKw3X75XAJ/y3rw6Ox3jQ4+2/AJFO9SedBQqsBpo6xpmvzjQ87T3KTl39Ceke6F4/Un8rFvQ6ea2hdchDvX1VJQvLs/WD4BzOm3sz1XbmGmZjjKIft3HDaqgy/46+QFvlRwcXRtv8g64HePrbPVZ363t1LgzSkzu22cjn2WwVflZ6zHicP3nE2i4nGKqsC4GO+Bse9u2fMjoz/ieeMqc7o87fWDAfp799QZ5Zm9Wxzvwk65/r6XjaSzezmuuvX9QoZCzIWMR8kLcLsmqcx/JKG5r91NCliVlSjqWh4zZHGKSAzQZoKyobWkN4SIbkqpiJ6L/+L9W5nngYntzTxzR0beGjdMm7evp4z4vV5L6K3B4Lc03sg7x8xgU8NG8995f3aiGiA5ub8SGg1ma7nkvmweZIQ+fle+/2ugycda7ZhLl/1Lbane+dbsV/Clny0y/GJkuOM3SbD86NvXtQPmOZjCVNY+/MeMow2+3q3zu5INySmAb26aVFkKTOmP1n4ayLpPJjTyBZunLoxa5criZyAUOLTuPNcXh511rl68H+1PdNx2/E90diiwq5Tn0+ksE42d6QDKNntbciZiPyeWGQjc2pm7j1KrvuFdKuYJu1WNM1xCB5nkP/k/3gI3p4QiTfKSO+IaPPZS60b4C/lby9mDk0n+cyebdy34TXu3ryKSxr2UGptXj9Di3F4KNaba4aM5d0jj+KnfQezPnjovtCcyA8hPcnpupDuaxo43zyfl3Vzf920do+yEgyfWDuLZ+N5lxByN9a+j1knZmEynfNEY5lNyEJyEX5m6xb+zY2nb9ZRuDN4nYwH6Va37l/0CNOGIrlfLTZZTubk4GcWx3/3nGm26e3/uG0zS9BmrGbs7rBtxSCc4+f0lPLA8ixerwmlu+iHyO0k+7zGnJqLfBHSbwvq2rVORdMljjHTjeGRfLSObQqQXFmmrtxt1xa4pf8wBOFdjXv4+eZV/GP9a3xmzzaGpZIF8Qyvh6JcOOoYvjVwJIujMWwHQ1Kbm4fnRfmndCE+el8+6ubnCXUtNsTf95zZ5vff2fwx/rrnrHwrrgfyoU64Q7flzppB+Hfm40E6uJdhxm45x9fyOfy154ymvk64G7l+eueSIAnd5dadJuXc1yOqMtlSngftKcuJxvAv0Zjn9JzjUo3vY/hmZp6WaYz+Cb6WMJ0uXCE9t/o4YLCPDej57CUaA/Ilf0PPZjQi/2FO9S3Mn+/6IqTfai5nN1Q7Zzee74g53SD3k+uDhcTg1YZIriwjuSqGbXa1eRzA89EYZzXV8+D65Xxr+wZOaWkquHTsE5LNXNKQ2TGVIi4tLYNyXnYXy8lmVVaudb55nkGmNi/r6A8HuHf/o/Z0vr/lw/lXUGEGM6c/nJ3JpJ2U46dJEK57LsPv+LmykSZoHqSnINLXx7st71TYwS1Le2HMyd1UpgU9I9YdcEzfnJfBy7qQ9uvoKw8Tea7n9Gtfk1K19qPM8XNHeis3nb6+YOvTw1+37uzGRwOsVeXiT80h3MiGEf+HtM3Q2O3bseachmeciqZ3Oyk7EmO+Bqz08+kl4ZDeHiHxWhmp9SXYuArog3FKcyMXNu4hmueu24fjK7u2ML25ocOfb0kMxEruQ02OMespy1JoZQCPK83TeVk/Tzcex+rkEABeiI/jqjU3Inm3ZCO/Z9a0eVm7nM1xfDQs4dqLOp5Wf87iEcAYH99Tr3Dt1PoeMZDeuqAMwwAf79i5+NNg8gy6z3V/AT0FY0bnXL6lTfYm4HOregN+xdC8kp2wmDygUhzgKJ/vmplb9x0Lo/ibgbrAz4/2Oz7aZHdRSeR1FD9H4g9xR80PfRfSb7XXd8Y3u2c3/NA5u/FIR+xE4BvS+rLNdlYkz3pmeXprhOQbZSReLye9NYKk1IW7WHAQbt62nnHJDiXco7klTxKNmRVZvd7H3Ko8HYsMf951DtvSfXjvqu/SZPMrR8HI0PZtOFyd3QGQU3P8WJm5dYs92+dGUeAJa/ata/cIn+/YuZg7MWd3Y30u7jn16YzPcQlWZXV334tO8m/uJz2nX8cWHQX46+YvGY7buMfibwKqwq3fyqoIUOHvTb3sepa4PKYzft8nsDcyu+b0fX/l+zacMQjEnwWeBX4gVb17p01qkiOciHGOR+R4YCwdySRq2I6w2cBKMWaxY2UxJvps6uXoQM+xq7TGi5cS6zF721o+MXQ8tW6gIIT0pCwL6aPZwESzkqUyPu/q5/e7z+OhuslsSA7Mq3INCe5iwYQv9x4Rqh1ksuo2Jafm9ghpyewIFezpPpe3BwlpOdlX2xl5tZPf7D4hHTQ9R0hbOTGnXTfbicaQKf4V3nm1B/XryT4fX1hPeTCzHUzxTvB33M56yIGPCyORCt48j9iffhynMfladltIr8eJ1W/F1zhvBewH2MfrKuf+rKaithZ4dO/P2+PBfEL0iw7AcQaABJB9hjAJ1uLUbTJn086WYyO75o13ItKidV3kDEsluW3bWq4ZMo7kIc7Fzpejr6aa7HvpfMSpYqmXf0J6RcswVjAsr8oUNGn+POYHDAvtDFvDD4DsBG63nus5JJcqGpEMdzbMVF9L6Nql9BQcM8XXCbd1M3ftnlvVG4+TumnCuJ6vTN3Wc+qTSTk9/13Ict+Qqb6JLcf2HNdT4UyfhXtVxompxJzkq0Xc5iUFXJ+X+LxA9nzWz9uuPDbJ7Oq7gO/pjN/XznnM/q+IfC3mFSTNO5o3mYqmF0xFfKk5J/7sWz/vqFtlKjioUu537cp6IKmVnT9YDOuDYR4v7cWCEv+8o05qiXPjzoMfv+nZMIlk7nPJ9CLOeLMl69e90iwgql2hQ9w1ch5nlL385kv2g/JESXYShLk21/HRK5h12vaOG6IqBhzr6/BQn1jRYxqSyHT/XpTEaZqceebWdKT74qOFniOebl0wFGFkjmdDS7LYNg0Y/3akTfANek7H9vtYiUc70ff8zNj9OtdV1BauFuIin+/4bLdctTF4B7BGZ3C+sl/+mJ58mPdu1N0hJzQ4LqtCYV4Ll7AmGGZ1OMIbwSjNTuu6zaf2bOf0uH95hS5p2MOaUIQ/9Gqb/6f12KvcJ7qa4ryO6YZtj3IT513OEv5qT9OGeQiuGfhPPtV/v6TRRsT5GnBpFt7YhRUfHS+ZjLF+ZmVcT2VFz3AhmvfUAJL7r1Z3M69RaTLPDmm6MyO79Bzx5Dq5PpMvjUSfz9rVbl84Fsfp71PZkwxb0zOO55mzeATijfX1np7zSCf6tX9CWgo4fGPOohMRO8rfm0r3COnKiXFmP3MlOE8BEZTuxzCwWIT0ThXS3UvccVkfDLE6FGF1MMzqUITl4RJ2HSYmeWyq2feyXrNrK+sDYZ4q3X83vLllaF7YcjLdN/f8qKnir6iQPhinx17h9uG/aPvag0ukqvdoU1G7tmvvTybmeK3mmcxeEtZft27Tg4RXMnQWiJ+13cmYOzOd7vJXFtNz6lOcszC59OtmWVazXjuOn317M1dc4fWMduBz8kVYyw1TM/PSaRX7ffwroi1ct27su/wXX4Fnu+3aM09bwuyad4P8Az/jvouVA46Z6blC2rAJ4Tit8a7jGcPWQJDVwQivhaOsCYZZFY6yLhjCdkIhdDSbdjZxEL67fT2fHjaelaG3F+3yJT56fGBtt81rK9yXGOnuYH1ygDbmAxgV2sbfxlUSMu2GorkW74vArC7eJsc70iazHWkjk33Vgtb0oMSQcqbPdZu5kJ73QJiknNJ9g61Z2WOq03RjQraO3X9plq/nZ8KsHT2oX/uc3Vky340mfaImGuuoeeWDPnsiNjF87WvdeoeZUx/ljsVTsN69oNqn20fmohDS1qzN8UpywdLkONxf1pdXwyWsCoVZG4yQMtkZdAICI1KZx+w+UdqL9cEwH6vd3ul7l4hlzta1fGLYeHbv3TXPjx1p4ZaRDn+xE5jW3MDUeAOntDRl7TzvYK8EHw08wg+2fFgb9z5EnQR/HfddBgTqDlU3n5L7+ba5hHinbjK3ejQeuVzB2EPjlMxe4OJzojGnG5ID5A5/hZdI5onGEn1OwhDuxpdvz6jPuUuH4KUm5PjdkF2xIvjZt7f2iHZQKQ7U+BtPazrh1o050ccSejQFXy7I+pxTMxWRY/2tT3nOF++MGZOXcffSU6hPfR4jN4EZgtI97X/fKUxPfUoxslbrunOUWsu7G/ZwbCJOrRPImogGGJFOEJTMFzj+E+vDT/oO5vsDhnepPEPSSW7fto6wCMlUb9Je7r1gwqGduG4L64Nh/lLen+sGj+G8UcfyhaFjuaf3QF6OlOJ14Zmdvkk+0e+hbonBLlQMwq9HzeHUksN6ofbxYrHOT6I8k+NEY7Iwoxja2xeNAQb5W0a7vUc0qlsXDMXvnQA38EInvnVCN3eunlGfXvrc3Jchi7t+8x4IA36KrZ09oh3EFk33eUz0SKYe78QiiZ9jzyoqJ8YLsj7FfsL/e/Kcb/e6emKKWdPm0dhrNPARkP+iyZez/Y7bte8/e+yOtINZKyocOk2J9biybicXN+zh1gHDeLi0d1auOy6ReXx0nROguqQMgH+X9WVtMMxt29bR1+vcSQLHtzTx9Z0b+Uo4P7xfSqKb2vwuaQxLIzGWRmKtnxHLSS1NTIw3ckpLI0clWnA60L5N0OLG0oxhK2fEXuGpxuO1cQM3Db6XK/tWdWzMNFwK/K2TIjHH50dn6NaNN8338go946gk1303/h4gXctXJq7huky/Jt3pAiqUhnqGkBZ5T45zG7TQK4u7ft3uidDGgPX0jIbwXn+HbFnIV8/Y04lvHu1jIQvzfPDKpSWQujIHiuRZ/5/12CTwR+CPzKspJ2HOwMhZwAkgE4BR3fi+qgOzBiNrENmBUI9jvAPeFL1A9m7mml5gHLAGTD+gP/Dm/4fyb0goEiGNsWv9zfnSM4lZj+9s2wAD4eFY18X0mFQi4+88XNZrv13olyKlfGzYEczeto6jEp1bFL2gYQ9jWvqwIQ9sHI1sOuxn4sZhYbSMhdHWBYVSazmlpZFTm5s4ubmRI1MtuO3s9Dtlby82fLz/QyqkgXeWL+U7w+7JZNC8WOYTMld0ZlU3xzvSkmHGbseZhPi8AGlNz4il9P1cUnkB05n4Jed4um+RuTbjs2/zcsJdFcFwfo5L8UKWbTnF3/5gCj/RmIhhTo2/Qhrn3xl/Zf58l/Uc6aNdCjN8ozR1A9DL/xvnODHbtVPrgf/u/Xl7UaEsOQFxxmFkANAXoR/QF0zJ3oqO8mYmcCGJMU0IzRjbAqYBzE6EbTh2B4btSGALDU07snoKxw+f7kPQGQ/OkcBRwJHANGBEDi26syiEtIe3yunRScl9HNYRvr5jI89GYuwMdM2mnRHSD8baJqLcHgjyuaFjqdy+gbOb6jpVlkSeJBrrG1mf8bS2yXF4uqScp/eeyR21lmMScU5MxDmhuYkTEnFi1sONvS2k39/nKb684RoavGjRtuUJkY38eez3ccko/rxXun9pBTQ93IlJ2Ck5fNwUTcHMjigR/C9vwEkUfMO6qypGM+f4ek/Dok5Ogo/uRsEf7xEDRWnJO8DGclyK7E6+Hab46qRnJFzw7WB2zbswjPN58vqvjL+zcfgYwL8X+wGurQXBbc+Mw3BjDu7cSOO0/DvJoNU1//m9P/lLq3fGkjbj4dwlY0mnL8fIZ8GM9blUG/cfWnsoZddu3QGyDSUrRMRyVhbOfs7UtXt9MMyycEn7MzbjcOOgUfyyz6CM5wcpXF6S0Tm3a4xmnt7yJL/avIrP797K5OYGIpJ5krFmx+HZaIzf9B7IV4aM4dzRx/DB4Ufyg8go/pUaxOs2RthJcFmfp4q2DZe5zfxtXCW93cxPk3Eck3k25rnV44C+OXzkFzKKY6sUB+Qk30uZzlJWvVzSEn4ffp/hKTyZ8Xfm1ZRjujX5ne0Rg4XxrsyDQmQ70dgUn8tf2MdEVIqD4es+9+nlGR97BeCZo322TkNh1WVVAMf8gpycs2yeyyhPidIxrpu0mlnTbqUsdBTwdfBzmXD/Ix57+pbtS8B52uKyw8B01/IVBEUYkc5s8+m/ZX0O896BX/YZxJpQmG9t39hhEfqKjKI5D0IvJjkrCInHCS1NnNDSxCdqW+OjX4mUsDhaxqJojOXhaMbHjFkMq0IRVqWH8Nd0a+LGEJbepat7SgqYzIQwlj+O+QHHRNZ1btjszCTUcybm9OQAYzI7P7ps8XiEcv/L6fQu+AYmznX4m5MjTSjD+gVI2XHdHMZdXvB1ecfCYViTeyHtpRdn7VrznhpAEp93bXzOjJxtyqo/gxh/Fx8c/t3Jbx7j87ulsLwNYuE7wZyTm5vLsyjdR2v4y83cXl3i28KX2Nf377Y9GGN4SVtZ9tgZCHbp+yNTCQIZzDWFjsdl/6+0N58eOo6tgY6J4yVyRF7YdAptPX5CIpzS3MTndm/lt5tW8vDa5fxg+zouadjDwHTnQ+aSOGyP7CQc2lV0bff7w37Lxb0Wdfr7AhOlMtPx0ub4/GibYaIxe3JuBmpb2Ed0zKn5SA528p/fG/eW6Uy9u8VUOXcsLOzYEWsqyX2CmzqaT1uRtaslwpPxPYugOZpba4YXZBu4/ZlpYO7wv+3Zf3XO1Pi8Iy0jCqYuZ9dcD+aLOSyBCmk/aCr/LnTiOMjO4AbeKBohbYWXtXVlj5q9ia46y9hkZrvRz0djbA50fD7zRjjKJ4eOP6gr+H5C2uaHkJ5kVh72M71smvMa6/jmjg38Z/1y7t34Ol/ZtYWp8QbCnUgM1atXca0vXdp7ATcM/ktXL9OLs8oyTOZiJuX0wdNOdWYDJrnKRHdqwTauuUuHIDInB3d+uHNfk1HdrZ4QTi7Y+rxj4VnAp3JfEHk2u+6g3pQcPISDK99FCizr6+yF52Oc/yCU+FznW2ia3tnVXn+FtOT43dahMophds1tILNzWg7PW6rqwQcqj00izPXhTi3Ul+63yNmjXbuNlZdxNHN3Nni6pJwNwa4t0o9NZRYf/d9Yn4zvsTMQ4Oqh4/jazo1c1HDwEySWMj737RNhkpP5psPYZIKxyR18qG4HzY5DTbSMBSXlLCgtY49z+C7du/xFduw4G6Hn940To6v43Zhbs3KGtidMAF7r2KAuDqYml4JiHTdO3Zjhd47KUVnfz91Lbyy4bM+3LO2Fl34AGOj7vS3/6OQ3u7+sYt4HGWaLzw8BdRTW/B3yYGA0prATjb3NJ5izKMKtNTd0Yjzyl7nVo/GYBXyOnGwymXs7tXjSmtTS7x3pE5m98ChmTn8tL+vy5kX9mFPzC+B9OS5JfZc8S+YsOhJrL/WhPjcwa/qfCl/0yf98GL6f23u0WHEI6ZK6Pq/E+9S1kJMEAz2HZsdhXr/BXb5OJjvSCWOoKu1cuF3SGCoHjGB5OMp1O7e0OW+5XkpYKbn3Jh1vttCPriVwi1pLRVMdFU112B2GN8KRt7J5vx6Otjt3CgYaKC1dTWPTuB7dbvsF6vnb+O9Q6mTnJAZjpONuir1qJuDlMF7U8EwnvnN0jko7gvrUj6iUawomKcucRSciqfng45Ezb7OWWVOf54ZOidwBPsRyf47bqv/BDdOeKZjBYnb1hcD/0Xp2aT7MCLMnpEUMcxZNhlzla5AP4nIps6v/BXIvnn2MG0/Pj2RVs58ZBe75IJfgcUFO58RGft+p792xZDhQ5ndpwfwAuCz/+vLC94L9GTA4D0rTxURj8nkMX+n+YjqvA4UvpN1wEq/b1+PbeI307B3pymXJph8NWwrmdJXDnef2/sNYF+z6WsTYZMcFzRMlvWh03C7d7y/l/dkYCPP97eso3Scx8FLGY/MgqmESK7J6PQfhqEQzRyWa+cyebew6ppn/yQAeTg/gFW//92zv8hd7tJAOGI/5Y7/H2FAWj7sU6fh5aZ6ZmLuJK4BktiNYWRWAHLppGD5PafUk5tR8mxHrH+aKK/LzDNrZNaeCXIfYK3P2/jTmn507PxpA/Ng9L8XhUebU3EnCzOFrU/I3KcOcmqmIzAIuhTxy0Umlsyek51RPANM7x08UAa4EcyWum2Z29fMgz4PzIniv4MlKrDRn/67RCOlEP1zTD3H6IzIUw3jETAA5GRiY23H6rX65jOund+4YIkkfk6Om+z5ur76RWdNuzYs+c9uiM3C8ytwlFWuXrsVHi7zHp/Y3mjsWRpkxvZlCxqbO92GuUlxCGsCIeUYMKqQ7ySOx3vynEy7WBxISYXgGWb8fLO+TlfI/U1LGp4eOZ87WtQzde/98iY+e7HTj0YKOMCyQ4Co2clVwI1skwuPpfjySHsDzXjnlsddx3RY8r2c6a9wx/GecXfZCto2aQeIce2pO5+WeZLYbWBIdA5LbBEvGTETkv6wfvoXbq/+J4X9YdyE3TN6ak/LMn++yfvgRYE4FmQbmYsiDM/OM+WMXvt3fp1JGEfkqIbmeOQsfxHI/uI8za8qanNru1prhOJyKw9mIXIJIPq4mbuOm09dnsb1MzQutuP+8c1JrDgkBHHBp/cn6OJgC4+w9lG2vEWSf/84XxPy+89/l6Jy9agy3MHvhsdjADTkZp+9YGEWcy7DyaYw9i7wLV+tCxu7Zz4wCxvhU0DDWOR14tGAnfbcuGIrIzd3cBgQn+FTRCWlx7DOIg5I564IRbh6QnaSbo1ItuB1MjLXHCbAoEsvac6wKRbhq+Hhu2baeU5sb8yZj92Szotuubdz9bT3EtPDh4CY+HNzEWony39Qgbil7ic21k3tcu/1o30f54sB/Zd+mjvTKTBTmzASNxJOvZPQNl+H5M7c0QzB8Hvg8jgezq7cDL2LMMqyswZiWrN5OpA8OEYR+GPohDAAzkvUyhreyN+fNBG0xM6Z0JXmN38fWhBDzHgzvAQuzq3cBL9B6NOUbGOmG3WrjIGZvXdp+GDMAYRwwHqQfeaijDiC78dGWyWiqmHzG4ridd6vNXUjOmwX4KI53ObdX/xfMf3GdxQxf+1q3eRXNXtofkuchzgVYeQ9Ir7xt39bp/FhtzFm+jlMilxaskL6t5ggc+S/Q3TGbz3HdxC1FJ6Q9xyx0PQT0VZIJdU6AmYNHETcdW4QYlkoyNtVCk3FZFomSOOB7mcRHP1jWB8+YrD/PNYPHMGPXZp7dlftEY6W0cKxZ323XP1BI78to08wXQ2s5ZfDvOb2HCemppcu5e3R3JW40HRsv5893Wc9JOTRDDZUV6cxeouTzMTUDgfMQOa91FM/y7MLsc0nhwP/IM8xPujhbCuX4VdgPeMfeH+i2hM6ytwpNvovm9ibQi7N8vWmFZ4Qiwsj9XD95QxcucEwePEUEw2Ugl2E9WD+igdnVz+6N9V+JYSPWW08guZHrKmo7dMV5D4RJ9RuFJ6MxchSYUzH2VEgdDcbB5HubNrXMmrKyU7ksWr9/pr/F5SPcuuDGvMlf0BEqqwLEIp8H+SFQ6oOR/tveb3u8kC6/ZtOuph8NX47fB9YXMEljuGHwKNYFD795cXZTHZ/as50JybdDKxocl7n9h+7nEp5JfPSDZb2z8hx9bJqKpjpOjjfR26ZJG4dXzWC20yvnNj7FrCJAN4aBdmCCOq30NU6Irual5rE9ot0OCe5i/rjvEjbdlGxCpGPOhxuHH+PPoH5QDfFMJ55tqC415j07aWz+axcnAkE1Y54jNntCunJpCaSOU6PmMdbc2cXxfkIejt1lwNkgZ+8tY6uLvReB2dWNINvB1AFJoAEhiCGGwSDSG0wfkvQBu0/+9ELbD7PPdT6XBSCc6Xudue6nwZcjpLrG3UuD1Kcvw8i38fO0EZEHilJI7+1+jxoV0h21Fd8bOILnI4fWAaXW8rWdGzivsa5tb7Qe39y+gXIvzZ96DQBgTKpjQnpVKMLroWiXn+P8plq+un0jJbJ/wsQtkh9zisnmjW6vx47w0X7/Y9bGzxZ8u404Sf4+rpJhwZ3deZuOCWnPmZjT1XIxmR89ZGSIOu3kPXOprOiqW7sK6bwn9GzWLhVLTAQnoDbNW15m5tQnmdXZhRJxMDX9CuyZY2D2j90z+05cesp7yHTerfvWBWWA/zGIhu8zp3ozM6bO79IiQHdQKQ6lNZMw8l4aUh/H+J6VfR1NU5cUrZBGzIMY+bKO2YfnZ30G83Bp70N+ZkKymR9sW8/IVOIQ/RG+tHsrL4VLeSVSwrgO7kg/kIXEZscm4lRu39BuTPZS2/PjozNR0h/p9yhf2/RJUlLYQ8GPR/yYKaXdfKSlMR3LlmdymmjMYgOLOvG9KEo+s5nG4J1ZuE6zmjKvJyurmTkxe6uBYqbo+lg+ay2Z3SXB0uuJcryIJgHKy7rluc5/183NRFUoAe5lTs1Xub36LnD+l7MEkXOreuNFj8PIZMRMhZqzgIG5m1vJbw52lFlRCOnSXu6T8fp0HCjR3n1w7i/rwz19Dn06yqX1u5ixazPhDiQOc0X4yu4tfHHIGIalDu9uazE8FOvd5ef4+J7tB01sli+JxibliZAeGKjlgvIl3F83rWDb7ZcH3ccn+z/U/cOo2O0dfAtOzKE5XuGmiXWdeHPrZCy/J9zfpHJiPAtX2q3GzOuKzm6iMcNktWm+Iqtp6HVv1y4RTqgd8xQn0Pm+7Mq47ssf0SFOxPCLvQki1wEvI7wBsgbH7MBIHZ7UYdw6HFtHOFHHFysaD3nFyqoI4UCUUgngRcvwvAiGQYgMbRXIDGs9ntEMBybgMfTtXBc53xz3MIHfHuyPRSGkzSfWtjTdOfxJDBdq726fZ0rK+WH/EQcfExC+tGsrH67bkdF1T2hp4uLGPTgd6AhLo6XsCHTN89BBmNTS1O7fUri8KGNybuvRZjuDTG33vqJTTmucdAcWuz/R/6GCFdLnlD3PbcN+4dNAwuGF9N1LgzSkTsjd3KwT8dFvCWlNSJSnvMKIjb/L0rVUSBeTkMZMVZvma1U7N1B5bLJL15gxvZnZ1fVAuRo0r9jDVyau4bpOfttSnkeeJKOAUa3l2Zu8UQyYvVk6rYHmCMyuPtj3U+wbUpQESL85X2kzycpTHjlUQsCi2YUwhge1b7fP85FSbho0kvRB2nBIhO9tX5+xiH5LqO3p2Ebem27dw1NJvrB7K3dvXsWfN77Bd7Zv4OhExzwS+3geJbb9JF6vyCiaCeXc3t3u1v2mpkp3bFC6uNciBgcLb349OrSNP439AQHj+XND4fAdoDF5HLl0k3Y6ER/d+uZOo+QjHkauzuJRMiqk8xmbxYzdty4YCnmdjb+YVXQ1M6bcl6WLva727DB+7eA/2yWXfYdID7J54eflEG47dHUVC2n7T3TLpQ0rQxFmDh7d5riqNymzHvO2rG43qVhHGZQ+vFt3s+NQU1LGDTs38deNr/Px2u2c3NLEuGQLFzbu4TebV3J5/eGPHA2KPejflsr4vLD5JN7wp+8nO9a9A8bjA32rCqrdxpwW/jn+mwwI1Pl2T8Ec/ogSm1O3brCmkzvSzlYdDfNxvs1srp++MItX3KhGzV8ZjaReyNrVHGdKDp6hTqvxsHjgfTmLyZyq1KQdEdDmK/6Nf7K0a1/3a3dA6QAPMmvaEyqkgZLrN2/AUKNt4m02BEN8achYGpz2kxEPTaf49eaVnHIQV+ls8mq4hLu2rOb99bvajW92RZi5cxNnNtUf8joNh0hQmi/x0ZOd/BLSAJ/o91DBtFuD8KvRszk+6m8ODNfhpQ6U7tQcmmZbpxODGPuKjoh519KraSj/VpZHhVfVrnnLq1k9w9X47tbdjJGLaHXlVA7+AvseM0/Lngu/2H+qUQ/JG1g7FXgUGOdTHT/Xpe87slarLS9oQpwvHra6imr8Ev6i7aKV7YEg1wwZyy63feE5PtnCrzetYHTSH0+YU5obD5vZ2wA37dp4UNdtgCbHoeUgu+v5IKQjJsUJxp8x0ja7Hf7scdG1nFryRkG03a8P+SOX93nS79u2YBtXdGCQyd2OtLCg841FntQJcF6xDjdwWZdjKNu+8ZeoafN2hrI4y+OB3zvSi/Z6T3xX6/KgLGDEhu9n9YqzTqsGFqtp2+kBmN/geRO54bQXEHuxb3e2btd2pJOhavSEhXwYk2d0ZHOiqIS0WHc+YIu9adS6Ab40ZCxbAu3HCx+daOanW1bTz/MvbLKjKQb6p9Nc0rDnkJ/ZFGz7XPVSwkoZknPbn2xWEcIfu0pzZrkEP97/4bxvu+eXL+FbQ3+fiwF1mak4TMVVLgsBuTuo3KHzLsCzTtuO4f/0xZkX7AS5gOsmbsn6lWdMX4lhvZr48FNZYJevdzRddAfdl/nzXQx+e8e0jj8jN/yQ1t0/ZX82YtwPZTHfwT5jv3xbzbsf67DmAmZO/dTbXh7GLyG9i5mT13bpCjdNrEPkLq3GXGpofs3MqR3KZFtUQrr0unVbhM5mte0ZNDkOXx48hjXBcLt/n9jSyM82r6K3l7+5h66o33nILODr2nm2pYzH5kFzn8QK3+5lm/dm7u4gR/d6lqCTv5uSEyIb+fPYH+DmZC1MDr+TF6s9EQjnzEC2i2Nb0MwADX/JMdswzrnMnN59h6ILf1UzH85GUonfOVWMkz1vgQ2jjgNiPlut1SPmiis8Qub9gIaLvN3nduDyzkNl/u0SM6Y/hOFPamgsyF143vHcMPWRt347t6o3htP86cfybFbi35t6fR3hSa3SnHTY/xILfr6jny66s0ONkT8Wa9NodhyuHzSG5eH2kwqfFq9n7pa1lEh+b9qPSCWZFj94KNmqUNuEh0tsnsRHG/+ENNZgWzrexStCm3hvr4V5WeflTpy/jaukl9uUk/uLmMMHkRsnl4nGWmgqf75LV7h2aj3RlvPQ5DW5YhWedxbXT3mxW+/i8mtAk9kcvLPPZtTG24A+Pt41QX3spaxdzVq/z4+2pNI1+40lbuA9HTrpoOezHcc5j+umLe/WuwTN54GXirjjPo6Ricycfk2bXAPp6AX4ddyvmOx4llQemyTlXAayWruQryrxrzhcztUTO7yrVHRCOt6c+BPQWGzP3WIcrhs0mueipe3+/Z2Ntdy+bS1hKQzP9w/U7Tzo314PtV0oWEp+ZOyebPyNQ7Z1mZ088Ik8dO92sPxx7M0cE1mXo3GVpBsKP96BT+Yu0ZiRJVmJp/1iRSONLReB+Y2+UH1tY/8gHTyVG0/v/qNsWif0f1Cjt6mEWoxcxazps1g/tg/g+njzF7MaD+9/orFX+eoZ+8dcXTdpNUbOBIr5RIBXcJnS7Ytjby5epL1LijB04zWEdzNz+ju4fnr7i8nGXuTfMGKey9q1vjZlFw7vBZpQ/HgPz6NxygeYMT2j+PSiE9IDbtzZAFJUrm0pY7hp8Ciei7bv6XVp/S6+u30DgQI6HGxycyND0u3PO9rbcV+aBzvSQ8wehhl/w+4yFdLnlT3LiND2vKrrm4f/mot6Lcrh2MoCc/rOw2fTFSblrJCSxZCVyooWZk79FPB5DHF9u3Zrve3AmI9y/bT3cdNE/44OcmQGsEEroHWYBPNn3MAxXD99b56AZH+fG0KWk8CJzzvS0r4r08zpr+HIO4HtRdiu5uN507lu2lrf7njT6etJe9Moip1p2QLmizS2HM+safcfvBbmu2Au9K9Y3tKsXm/G9Jcx8gGgRYfqbqMB+DjXT/sylSbj3USnGC1mLL8slmdNGsOswaNZGC1r9+8frNvBTTs3HTLmOC/rEDinsf2jsHYEgvtlI1/HALbTK+dlnsZrvt/TJlxsouPd3DGWD/d7PG/q+X29n2bmoNyue4nwj8N+6I6FUeDo3BXSZN8nf+a0n+OZk6AL2cCVgw1gceA2XDmK66f6vzs8Y/purH03xX3urwf8Bcc9gZlTP7R/cjfHZyFtsiekb11QBhzjb/mdBYcUAp45tctHAhUOK4GLmDntyqweZ9ZRbjx9MyFzBsjve6h9t2O4HodxzJz6UyorDp3QZ92wyYA//VnYwczTsu86d/30/4B5N7oz3R119hDY45k57XedHv2K0W4l122qBl7s6c+ZNvD1QaMOKqI/XLeT63ZtwRTo872z8eDZu1/bZ1c6X86PnuSsyMl9bV0oo89/vO9DmDxYWDmpZBW/G3NbrsvS4gTcw+dVEE4GgjkqoxBOdU+SsBumruD6qWeC+RiwSd+6XWYncDOeO46Z025kxvTdOSvJDae9ADIVcrDCl1s2YbgVl/HMnPYBZkxe1rZH2QG+lsjN4vFFTnCS73M7x1YfWtxN3UjaOxvkbz24XS1CzAcpCx7DzGkP5rQk106tZ+b0jyFc2YPG7Z3AjUjJWK6fdkfH3W+di30s47PdduWZUx8FM7mIFqS6F8N6MB9j1rQLu7r44RStDYVf9eTnsxgqB4zkyZLy9kV07U6+vGtzQT/j0clmRqUShxXSS/Mm0Vhuzmn2doYyyt59RGQT02Ov5tRW/QL1/G1sJSVOjr2ZDPeZM+r2HL7DmVwmGnuda8/svqQ+xggzp/6exuCRGL4ArEDJhGaEvyNciSMjmTnt69wwOT/iRltdb08D/t3jxTNyF8acQ+PUkVw/7aZDutwa08/HsjVQNzV7sfHG+h0fvY0Z01ce9lM3nt7AzOmXY8xHwdT2IHH3c4yZxsxpU5k19d5MkhR1O7OmzUdKJmCoBOoLtu8KN+F5Y5k57TZmnZjZrqwxPUNIt4rpVxmxYTKYq4GN+mrtFGvBXE1D+RHMnJoVr41AsVoyGrW/ibc4lUCHX5jGETAg1pDPntCtIno4j8R6t/v3j9Tt4NrdW3pEPZ7bWMev+wxsR0iXvC2k8yDRWBCPE82anNxb0g62PoDTq+Pv94/3e4hnGo/Nja1Mmvljv8uYcO61hvX4dQdHh1NzNygYf1KtV06MAz+jUu6mrOZdCNcBZ+t7+SDiAp7EcB+25D8ZT/78pHVX/D3cvugcjP0hMLkH2F+Al4GHMOYfzJiyKLMjaUx/H/vzs52JyzsEU3wqdx1ggQcy+tb1U//AvKceJhmsBD5bePNQ2YIxDyDyVxoTjx3WtTjnYvrEJuA7zKuZS5LPgHwJGJX3ZjY8B/IjGnrd2+lEfLfWDAc50b8yy9Juv0frOeS/4O6lv6U+fRlGPgVU4G9yxEIjDfIwOPdQFvhXthe7ilZIm6s3x5vmjbgbka/t0wlwIhYT8XCiHiZsIWgxrmACAu28h8UzSNKFpEFSDrbFReIutiU3bdpi+PbAETx8EBH90dodfKmHiGiACxpr2xXSL+8V0ilcXpQxOS/niWYNUZK5G0V2RAhlIKSv6PsE1234Io024ntZ7xzxU84uy4vIi+cD5zR27CgoI7nbkRbr75llrZP+fwP/Zm71aCzvQ7gMmEpxejl5wCqExcBTGHm6W8+B7rYJ95THgSncsWgiYj+K8J6CmHC/3RFWA8+A8yjWeXS/Xf/rM76WjzHSJsuJxmgA/gdSC460/tumMU4cJIGYBCJxHOMhe3cpjd2zd/mhHjEe2CaMm8RxWjCmGSspkolGTNRmJSleqwfNF7lj4VysuQ64CijN04bVhJFnEOcRHPsIM6a/XJCj1LVT64E5VMpcSmvObPUMkPeQwWaSL4sUwh9x+b+s2NnlIvAxetEEnvXtXq1i8F7gXm5bPBg3/R6sOQ/DOfh7dF++Uo+RKuBRnNB9++fAyPaaTxHTeOeYQW60ZZ1Tng475UmcqG1XLHdS0eLFA0hjAFsXxCa6X1inDXx94CiqSttPrPWx2u1cs7vnnUTxweFHtnt29F83vM6e5DBOS9+a8zJ+0fkvt7n35LQMoXENOKUdPz7242tu4Pe7z/O1jFf1e4TfjL49P17pYt4TOKfh8C6vd1XFaI7UkrMVYTk6L4Tb3KVD8FLngEwDczpwHD1rlTwJrAVZgZjXQV7FdV+k3n117259z+OWBSMJBiYhMgEYjNAHY2IgsdbJ2lv/HQNfMzruRliMMYsRs5hwYnFWwxtmV9+zV9z5MPmWK7h+elGdJNJ27KjqjQ2/D7gSMWcB4RyVJA28BmYxsAhjFtEQX5b3u86dZf58l3XDJmOcixDOwDDR5wWNNFCD4X94/I/RG2r27rhmqx//C3i3T8+ynZnTBuVJnR4N7iSMTMRwIsIE/Eq4loMJELAezGsgr2B4BTEv09j8ol/9tiiFtFSVj7fifRbHXIkw0o972oSLrQ3i1YaQRPY3bVLG8NWBo3iqtP2Y6M/s2cZn9mzrkfX5876D+U3vtrvS39yxgW11k/iy95mcl/G37o+4wslt8mOnxCM0vuNJRBMSJO75O58pD8RxyYOzzA3POWc1TjQdyXR226IzcOxTOSrpbq6f2j8zt1WfqKyKUBI6CteZgJgxGAaBDAQpRUzpXvEVBukFJgJEgfIci+80sBZhJYYViLyBYQVucAV1jet77IQ6W8yrKac5HSMQjCFShpheODaGlRjGiSHSB0MMY2KIxMD0AsoxEkOIgZSB6b23bXh7j7hZA6zAsALLClxZ3qGY3K4wZ+HHwPiT+dpz78ybmPm8GDeWllCamo5h6l633KPBDCV7u2wtIJvBbMawHmF56yScV2ksW5nV87wLzvZVAcrCxyPmBOAYkGPBjAFG7u2TXaEOzKsYeQXLKziyjLRd3K2ZzefUfBPEp4UBWcP10+/O27q9Y2FfxDkSa8fiOENBRiAMBzME6ItIXwx9yd/F7920Htm4CngNY5YjLEeir+U6dKpohLTMx/X6x97jGD4ncG7Onl3ANgRI74xgG7PjWX84Ef3huh18edeWHlu3y0NRrhreNqHYJQ17eOf2KMsk996J73EW0S8Pcn2ERjVlFCtdrIjYiwPnxDsW+3frggm4gbNyNJ5sY9bUf/Uo48+f77JqSDmOiRIKR7CpXuCEsRIDU4pjQ1gnhtknS7rIm0L8zTebi6H8IDbbx6WVOMZsxpOtGGcz5e7GvEoWpCjKmyIvQmnJEMQOxRDF2afPW9MbY96e04n1cKjHmhagGVfqgWZsaAszJ+5UY3aCHz7dh0hgMJ7ph5G+reLLHORIEGnCkV1Y2YXr7CDp7crJUWBK5tyytBeu1xfXi2GdECJ9wAnjeCVAGeK0ChcjLna/d2wUh8xjAa0kwbQKYUdqW0NLTC0itRizB+vVEg9vyWevrx4vpEUwXlXsUuPwPcTvsxUP035aXNLbIti6zp+akzSGrw4axdMHyc79wbodXNeDRfTetQkuGXk02wP723FUKsFfN7yOsk+HD1nCExqyF8LQE20E/3AqGt+nllAURVEURVEORo9ODJN6vPQd3hNli4zh7/kmogGciEdoVBPBsY040czDQlqMw/WDxxxURF9Zv7PHi+i9wofT4213e9cFw+xyA9rL9110SDqkt4fVEAdvTPXGel9SQyiKoiiKoihFJ6Tl6V59vKqyexxj/meQSfleXjeWJjS+geDweOsRWx0gbhxmDBnNomj7YSvvbtjNjJ2bi6YhnxVv3236pUip9vIDSG+PYON6UkL7gwdfM+9o3qSGUBRFURRFUYpKSKcfL7/Ypr2XQK4qqIIbcPsmCU1owIkdOp9NvetyzZCxLI20L6Lf1biHr+3YVFSZ5E5tbqTUtk1S9WKkRHt5W7FIekMpiFFb7NsFDY84Tzb+TC2hKIqiKIqiFI2QlqUEvSdidxlj/wMML9jJfNASGtNIYEhzuxHsOwMBrh4yjlcOIhDPbarlG9s34lBcMbAhEaa1syv9nO5It4tNOKQ2R9QQb/e8dSZtPmQq8yFluKIoiqIoiqJC2g8RXVXWXxpiDyN8oWfM6SEwIEFodBPGfVsQbwyG+PTQ8e2emQxwTlMd39+2oehE9JucEW+bFPKNcJR6V92Y28PbFcbbpfHSQMLQfVVCAAAabklEQVQx3uXm3IZdagpFURRFURSlKIS0PF56okWeE6jocZVTliI4rhETsqwNhbl6yDg2B9o/bWBiSyPf3b6+aEU0wLTmhjbPbzE8G4lpTz8Iqc0RbGOwmE0gIvJZc3Z8ibYGRVEURVEUpSiEtFSVTLSOeRwY0WMrKOLx2jjDZ4aOY0egfcFzXEuc2VvWEpLiPtKot5dmQqKlze+XRFVIH7wTGVLrSrEtxbprL7MC5zT9nzYERVEURVEUpSiEtDxecqo1zsMIfXtyBT2e7sdnEsdR57R/jNPYZIK5W9dSIhraCTC9HffuJVGNkz5kX/IgtboIxbSYr7sVTXO0BSiKoiiKoihFIaRbd6Kdx3u6iP5TahgzWo6hhfYFztB0ih9vXU0vm9aWvJep7QjpdcEI2wNBNc6h+lTaIbU6hm0uGjFd6Z7TcLPWvKIoiqIoilIUQlqejI6wOP9GKM/3sj7tdU7nC/Cz5ChuSYzDHuQQq95emnlbVjMgndJWvA/HJ+KUe16b32ucdEfEtCG1Ktazz5g2JAXzCbei8Tta44qiKIqiKEpRCGmpGhCz1r0fGFII5X0gNZA3bGZuxQkcZrUczc+Sow76mRgeP9m2mpGphLbgNg1amNzSdld6sbp3d6yPWUNyVcyTlHtvD3y8PRYuCFQ03KM1rSiKoiiKohSFkBbBiGn+I3BioZR5lS3hF8mRHf78BolwVfxEHkkPOOhnXITZ0eUc22+Ptt6DMC3enpAuU8N0EGPNHYF31n1QMJ8GWnrIUz3riJkWPLuxSmtYURRFURRFKRohbatinxfh3QVTXgxrJMoj6QE85vU/7Oer0v34YPwUXrWHFnw3hVcx3d2N2y+B2yepLbgdpsYb2zjE7wgEWReMqHEOz6po1FYCBCoafu1YexrwSgE/j4fhZqesYZo5p+F1rV5FURRFURSlaIS0PNZrHIZbC8mw6yVCQlpjTb/ZPIElXu92P9ckLrckxvHllmOpl8Ahr/nJ4AauDG5+69+BYc2YoGbrPpABXorxyeY2v19YonHShyFtrHzUXL05/uYvzDvizzlljacA36DwdqdXOGLOcs9u/LqZiCYTUBRFURRFUYpHSEsVAc9J/xEoKBW02ns7JrcRl883H8cdybG8asvYasO86JXz4+RoLopP5k+pYYe93jsDO/hyeM1+vzOOEBzWrK24HSY1N7b5XY26dx8G892S6zZVt/ntRFJuReMPHMc5wWAeKoAH2QXyFaes8VhzTsMzWq+KoiiKoihKtgnkewGtxD5rDFMKzbArbcl+/07icE9yOPckh2d8rRPden4Qeb3d/N1OeQqndxJbG9LWvA8Tm5v4U6/9Y82fi8ZoMQ4RPXO7LWKeKRm64ZDHQZmz6lcAF8pjZdPFkUqB8/LsKZrB3OXg/sBU1NZqpSqKoiiKoijdRV7vSMuC/mUYvlWIhj1QSHeWfibJnMhywhxc/AWHtoAj2pr34ZSWJgIHmCRhDM9r9u72qHPE/Yi5Aq8jHzbvaFjoVDS+08GcYeAfkHO36Q1gvup4ZoRb0TBLRbSiKIqiKIpS1ELaJpu/CQwqRMOusl0XbC7C7MhyBppDH3NlAha3rx6FtS8l1uPoRFOb31ere/eBiBE+Fb1u7dpMv2gqGhY4FY3vczwZgTE3AK/5WO4Wg9wvhiscGse6FQ23mHMbdml1KoqiKIqiKH5g8nZ2XxUdbnFXAAWXatnDMKXxNJJdXKe4OrSeL4Y6pm8kbUi+Vo5Yo616Lz/vO5jf9B643+9GphL8bYMmb95nALit5Msbb8xav30ydrQVucBgLhDhzCz33y0YqkT4h0v0IVOxo1FrUFEURVEURckFeRsjbXGuKUQRDbDORrssosc6cT4bWt9xQRQQ3P4J0tv1iKc3mdTc2EZIrw+G2RQMMSylR4cZqIru2fj1rF7zrMblwHJgriwkSnP58Z4rJxorx4vheAPDafUyOZRrwDYMm4zIJjEsF2sWu6632JzVvOHtj6iGVhRFURRFUVRI74fcT4nFfLpQjbo6C/HRnw+tI0hmSbHcfknSO8IguisNcHxLE2GxJMz+ixo10RiXpXYXu4re4JG+0lSS7rZbTKcZ6hcDi9v08SoiEO2PF2rNkmcSHqFwPQ11cXMRGqegKIqiKIqiqJDOFFsa+zjQr1CNurKL8dFlJs05gczDPU3Q4pSnsXVBbdlASIQTW5pYfEBc9IKSci6rL2ohHceay8q+snVHznR8BS3QvBH2Pb6tRRutoiiKoiiKUhDkZ7Ixw2cL2ahdzdh9lNOY8W70mwT6qsvyvkxsaZtwbGm0jLhxitUk1hg+WvqVDUu0dSiKoiiKoihKDxHS8mT5EcCJhWzUrmbs7qyIBnBiKUxQz0l+kxPaEdIJY1hUUpzZu43IzJJrN96nLUNRFEVRFEVRepCQtp5cXsgGTWNYZ6NdusZrtgzb2YTqBpyytLbsvRzXEickbc/Yfqo4hfQvSr6yaa62CkVRFEVRFEXpYUIaRy4rZIOutVHSXTxVbLcE+XtqcKe/75are/ebhEQ4KhFv8/sFpeV4poiSshn+WTJk4xe0RSiKoiiKoihK18mrZGNSVTrYCqcUskG76tb9JrckxjHMSTDdzTwpllPmgSOgZ0oDcFJLEy9F9q+XOifAi5ESTmluAiM4EQthDxOwmAAYR8Ddu5MtIJ4Ba5C0QZIOJF1s0hREhnQDj0XLAh80V+Bpa1AURVEURVGUHiakPeNMM+244RaWkC7JynVSOFzTfCyfCa3nU6ENhDKJmzaCU5rGNmj2boATW+Lt/v6ZwSVMi2zpfEy5gE06SFMAu/dHknnm5GGojrqJ95pPbNSU2IqiKIqiKIqSJfJq1m+wUwvdoCuztCMNrfHWP0uO4sKmydydHMlmiXS8YqOacOxNTmppwqHtAs0TTp+uJWYz4IQtbt8kwRFxwkfVE55QT2BwC044LzZ/X0gFnIvNF3c0aitQFEVRFEVRlOyRX67dmKmF7oycDSHtIgwxCca6cY51GhjnxBnrNDGYRMeFdES9eE3I4vZL0r93knGpOCsOqJsNEuENW8qRTlP27hm2BAa2wMAWbLOLtyeEtzsM/q9rvOCl7Hm9v7xxjw5ziqIoiqIoitKDhbQRTi5kYyZx2GAjGX1ngEkyzmlirBPnWLeRcU6ccSZO2HRRCEeLN3O3E/FwByRweyd5M+/bSba+jZAGeCg9kCNDa7qnHFEPJ9pMYHALdk+I9PYwkvLBCURY6gXkgvIvb96lQ5yiKIqiKIqi9GAhLQ+V97XYgj6TaK2N4h0kY3cMjyPcJsaZJsa5ccY5cSY4jfQxqe4RcSFbdAnHTMgSHBrHKW+7iHC8W89fU0Pa/P6B1AC+FFpDd1rJOILbL4HbN0l6ZwhvexTpJocBgacSTuSSftesrNfhTVEURVEURVF6uJAmmh6FdQramKu8UgIIo5xmxjlNjHPiHOM0MM6NM8y04KukNWACgiSLQEgbITAwQWBgAkz7yeqOPoj79maJ8LIt4wSnwZ9yDkjg9k6R3hrB2xPKtop+sNRyWWzGymYd2hRFURRFURSlCIS057kjjCnsjN1nBXayNLij3cRWOdGXAUF6+JHSTlmK4PDmwyYNG+80EcaSaCe/3oOpgZwQbvCvXoKW4Ig4bt8kqY0lSKLrC0gGfh+t7fVpU7lMDxFXFEVRFEVRlO7WIflSEPP/7d17jFzlecfx3/Oemb3Mzq4vWXMxtsHYXFxDhQhXC7I7a3OpKYgWajUB0ZBIBVXF60qQkrZpTZM0QYlEwkUKoUpbQqFQk16CkwK2F3NTSMwlJASbSwzs2gIbbLwzszO7M+e8/cNcAtjrXc/szpmd70dCQuzqzDnP+7xof/Oe8x7zs+u9mCmLYhOiJUmJKbxzt0mJQ4tqOio/pp23A3kdE+x7VfrB8ixFmvyVe9dWVtPCwb3PclfAe93cunLgzwjRAAAAQIMFacm3MBxVzpoJPzWvqylS08KsEocWNZ78u8jt+y1Qb/smbQqn1eZaAik5b0jJOUN7n2kfn7Kkq9KrBnrN5Ol4AAAAoOGCdLx2EJ8aiXPqZSvXGqppYVaudfy7dS0e5Tno/yodVtPrCmaOqGlBXhaMecx2e/nz23oHvk+jAwAAAA0bpB1Butr81NpozLWXlDw6e9Ar7ceN8r7odeVOveuTNf6SoKymY7Ky5gPeqv58YHZqunfbepocAAAAaOgg7QOGo9olnTqXEswY2fs8dAVdMifY/2bWw3JaU+NVaem929YX5ORa9r3i7r3uSY2UlrSs7H+VBgcAAAAI0nmGA/ts0o7S3meIK1xgn6ay2mz/t4TfVZqjomr/fY4lIiWPzsl9dGW67E3Xp1cNfM6ue4u5AgAAABCkJS/tZDiqXNOo/m/tdm1lNR1ZeYh+32wr7vdnu3xSd4zMHdNxJvo2cEt4JefnZHt3Xv+tmT87vXLgRroaAAAAIEh/GPpMOxiOKhtx9d2cLaGS8/NV3TTtcDc86s//ZWSufhFOH/V31pU79dPyrAm//r27k+d32xzflVq57Wc0NAAAAECQ/oiEZ0W62nypflekzXklj8zLXHUf9G6z8qg/L8u0srhYD+4jKL/mW/XXw8fr2uIiZYJ3JqcOTeGMlpl7vkM3AwAAAPERn52yQ9evgFfhVi9Fm3y5flekE3MKY9m9etxy0YFbPu8DXVdcpDvcPJ0SvKtIphfCdr0QpRXJdHrwrg47wMp2VYdSuiTsS18dZHLfo7EBAACA2ovVkmXYl35D0lyGpQrha9hpeEtHXZ57MHNk7+ZiE2BZ/nTt8M0VHeNrLS/posSbk12WovP+DOvJ/5LuBgAAAGorVkuWJv8cQ1IdUaE+X8ttTZGSswsTcuxN0bSKQ3SLQi0NavIUQktkdpffpCTdDQAAABCkP+C9EaSrFaSH6vO13MnZBclV/xb/Ie90Y3FBxcdZmnhn1FdoTbATomzbSrobAAAAIEh/GKRlmxiSKtWyDoO0S5fkOkpV7inp6XCariyepC1RuuLjXZis9eby9g/+odRsOhwAAAConVjd/xs0NfdFpeKwpGaGppL0aIoKdRakzSt5RGW3dO/ySd0yMl+7fVKtKiurpDaHbRXfzv2+WTaiM4Ldta5Ue5QIvinpChodAAAAqI14PSN91ttZkx5lWCoTDSYkX1+vvgpmlirepXumlXR98ytKWVlry4fq0fLMqoVoSVqefEtOMdhZ3vzlfkN6MZ0OAAAAEKQlSV5+LcNSmfKe+tuPKtFZrMpxmhXp681btKp5a9VD74WJHXEpl0Xmr6XTAQAAAIL03hNyif+VxAulD17RF5ou8dLGumnC6SNVfWe0SfpCsl+3tL6gtKqzMdgxLq9jXT5GVbPL/PqWI2l3AAAAgCAt69qz1aR1DM1Bh8gHU1cP/CjdO9Ati0426YeSynE+58QhwxNy3LODXfrX1HM6wlV+/IuSb8WtbMnIkr10PAAAAECQliRFXrczNAcnlL/1/X9vW7n92VTvwBXOBcd66buS9sSuAVOhXMvEvU7qWJfX3a3P6JRgTwWTxOsPEjvjN9jmL+e90gAAAABBWpIUWO5/JG1jeMbt14nu/PqP/8fWa17fmu4dWJXqSBxm3q+QbJ1icvt8MH1kwj9jhpV0e+uvdHHi4FaVzwh26xAbjuN4zwoHO86l7QEAAACCtCyjsqTvMTzj42XfMdt/QLYrXyumVm37z7be/nMicyd42U2Sr+k9y25aaVI+J6lI/9iyRX/f8rKCcX6HUPt3R48yVxRdRucDAAAAk/13eFxD4eOd7VGp+KqkWQzTmGxzyi20jMa1/bVfLVecMW9J6KM/MdMKSYdNWohuK6tpQW7SC/VkOFPXFY9X1h/4NeqtitTX9qRSFsV1Bg+5plynLVGBKQAAAABMUpaJbcI/6+2szH+DIRpjIPb+b8YboiXJVitq7X3j8fSqgd7U7oG53uw8ebtd0usT3nwdtdkDbUmwS3e3Pqv5buiAv3tOYkd8Q7QkeaXKhfSZzAAAAABgEvNqrMNhn1oiS2+R1zyGalTPuY25T9tqVTXxFW+ad3ToomWSLpS0TFJLNY/fdExWrjWsWdH2KKFrC7+np8Lp+/2dO1qf1+nBu3Ef/68FmdxXmAYAAAAAQVqSVN6Q/mMz3c9Q7V9k6kl25/om8jP87bNTxWF3auTtLMkvkbRE0vSDPqCTWhbvkay2e56FMt0yfJR+UJr7iZ8dYsN6qO3ncjF/rbmXnkhkcmcxEwAAAACC9Idh55H0vfJawXDtawT9D4Lu/BcnPbytlst/as5iC3WaN53ovE70pt+X1DmmHN1eUtP8fGzKuKZ8uP6puFDl35kSX2zqV2/T1nrogpIr5NptuYaZEAAAAABBem9o62vvjMy/IK9DGLKPVGarKzSfZMt3DcbljPI3HXm4D6ITTVpgkZ/vnR2lyM+X6ajfDdmJWcNKHB6v/bGeCTv0V8XF2u33vpr5/tTTOsbl66ITXKjFtiz3G+YEAAAAQJD+QLkvfalJ99XTOU9shlbknHVbd/axujnl22enCjl9yifV2Xxs7qvWHF0Qt3Ps9y3qLZygJoX6j9Sz9dMOXpckenI/YmIAAAAAEy9RNyeaya0JH2n7lrx9iWGTZPpqPYVoSbKrtg9JGpLUH/Wlm+P45PFcK+rO1LN6MWyvr3ZwdhyTAgAAAJgcrq5O9pH8l83sJ2RorXHduRvq+Rq86ei4nltaoU6N/07dHxMt5H9nAAAAAEH6kwFytSIL3OWStjTqgHn5p6w5d4VZzLeSPvCFHM70q+Lc8DaDKgAAAAAE6X0HhrP37HYKl8n028ZLS3opkC62JSrU82X41XKq8jupoQ5KAAAAABCk958nM4UBZ2G35Lc20FhtdiNRxjL5N+v+SrpmpcSmcVUVyaZRBQAAAIAgPXqY7ir0uyhxToOsTP/SjajLzh3aPiWuZqSQYupVeT7Ip6kCAAAAQJA+cHhYuudV53SGl56YsgHJtMENux47L7djylxUaxQw9aqepEcoAgAAAECQHlt++ExuZ1DILZXZnVMwHH3f0rnz7fzBXVPqugrtg0y96vJeeaoAAAAAEKTHnjeXa9h1ZT8vr16pvjfiej9qevnPB925q+wUlabc9wPnvZWXVGb6VXUiD1EFAAAAgCA9vnBm8kFP7mbn9GnJnq7X6/CmJ53s5EQm/29TvPf2MP2qOQFYkQYAAAAI0gebJ7pyL7r27JmSVsvqapUuJ+kvg0dyZ1smu7kBem8n0696vNcbVAEAAAAgSB98mD5FpSCTu8H58Dh5+6G8ohifblled7goPD7I5G6z1bE+1+qNkfzLTL+qRulXqAEAAABAkK48rGUKA0FP9gqn6DST/3HMArWXdK8LbXHQk/tzW1rY1lCxz2sz06+a9QwI0gAAAMAkSTTCRVrP0NOSLvLrpy2IXLhSXl+QVKv37r4r030u0s3Wk3uhYYOf3GaTZwZWScCKNAAAADB5GbMhQ1zf9OmhhX/kpEu9/DJ5NU3wRxZN1hcpujtQfo1lVGz0xvPrO06LXPQUU7AqdruNuc5GeSwAAAAAIEjXOtA9PGNamBj5Q5Mykp0hr0Wyim95DyW9LNOjPrK1QT67zi7k9UQfqXufEpGl35FXB9WodBL7H7tM/iIqAQAAABCkaxasy4mRU53ZInmbJ/m53jTXpMM+/CV1yBTJa6eXdpr0pkw7JG12suc0nHr+vXclYxTRI+1rvffLqUSls9i+FHRnv0UhAAAAgMmRoAQfyyTn7N4jad17/xykLIUcA++jDZIRpCvkvD1GFQAAAIBJ/BucEqB2zWcPUoUKmbZr5+AvKAQAAABAkEYjZMBM7teSfkUlKhDZvbZCIYUAAAAACNJonDj979SgggnswnuoAgAAAECQRkMFwfLd8ry26SC9Yt1D3NYNAAAAEKTRSKyr0G/mf0olDoa/jRoAAAAABGk0Ypg2dyNVGG/RtMsp9c8UAgAAACBIoxEzYXf2MS89TiXGwesWy+zMUQgAAACAII2GDYbumxRhjExDTnYrhQAAAAAI0mhgiZ7BtWbaQCXGwOsblsm+TSEAAAAAgjQanJV1jaQSlRjVq065b1MGAAAAgCANyJblfiPPLcuj8d71WkZFKgEAAAAQpIG9DVlMrpbsdSrxSSatSfQMrqUSAAAAAEEa+DAsLt816CJbIW7x/rh+C+1qygAAAAAQpIFPhumlgz+XdAOV+EDZefusLcu+QykAAAAAgjSw78bcmPuGSQ9TCUne/tZ6sk9QCAAAACAejBIgtvnxJzM7otaRjZJOauApepfrzl5hJk9HAAAAAPHAijTiGyGX7xp0pegCyb/WkNcv/4BT9kpCNAAAABC3v9WBmPMb04uiSI9K6myYa5aeCJpz59gSFegAAAAAIF5YkUbsWVfuRReqS1J/g4TojUE5eQEhGgAAAIhpRqEEqJuA+VBqdpR0/yfpxCk8If/bmnOfI0QDAAAA8cWKNOonZJ47tN3Jerw0VXewvs025i4hRAMAAAAxzyaUAPXG9ykRKf138vqKbEp8GVSQ/JeDTP67jC4AAABAkAYmTKmvbZmT3SXp0Dqegc+4sn3WlmVfYkQBAACA+sCt3ahbyUx+nStFJ8t0Xx2e/rCkr7uh3BJCNAAAAFBfWJHGlOA3pLsi062STqiDSbfenK6xrtyLjBwAAABAkAZqF6Y3KRll2/5CsuskHRG785NtknRDIpN9gNECAAAACNJAfALrfWoKO9v+1Myul7So9gFaT8jsxqAr+4CZPCMEAAAAEKSBeAbq1XJhV/tyk79MpovklZrEj39T3u5xFt1pmfxzjAYAAABAkAbqK1T3zUqHGrrYyS710mckzZiAj3lVUl8kf39iZ/5hW6GQygMAAAAEaaD+Q/VqOZ3VdkKUsC5FOlNOx8lrgaRp45g5203a7CNt8fI/C4Koz7oK/VQXAAAAIEgDjROw+9o7JVtYVpg2ubTMJy2yGd78oHw0GFgwqDAa1Ejza7Z81yAVAwAAABrT/wORKUW7wpTQ3QAAACV0RVh0ZGF0ZTpjcmVhdGUAMjAyNS0wNS0wNFQyMzowMDoxNyswMDowMPgHxnwAAAAldEVYdGRhdGU6bW9kaWZ5ADIwMjUtMDUtMDRUMjM6MDA6MTcrMDA6MDCJWn7AAAAAAElFTkSuQmCC;" vertex="1" parent="1">
          <mxGeometry x="1477.68" y="350" width="88.64" height="30" as="geometry" />
        </mxCell>
      </root>
    </mxGraphModel>
  </diagram>
</mxfile>
